<?xml version="1.0" encoding="utf-8"?>
<!-- Generator: Adobe Illustrator 27.5.0, SVG Export Plug-In . SVG Version: 6.00 Build 0)  -->
<svg version="1.1" xmlns="http://www.w3.org/2000/svg" xmlns:xlink="http://www.w3.org/1999/xlink" x="0px" y="0px"
	 viewBox="0 0 500 500" style="enable-background:new 0 0 500 500;" xml:space="preserve">
<g id="BACKGROUND">
	<rect style="fill:#8DDCFF;" width="500" height="500"/>
</g>
<g id="OBJECTS">
	<g>
		<path style="fill:none;stroke:#3F3F3F;stroke-width:0.5;stroke-miterlimit:10;" d="M273.611,253.584
			c-6.691-4.39-10.347-12.373-11.314-20.318c-0.967-7.944,0.413-15.969,1.884-23.836c1.471-7.867,3.045-15.828,2.466-23.81
			c-0.733-10.111-4.637-24.025-2.493-33.934"/>
		<path style="fill:none;stroke:#3F3F3F;stroke-width:0.5;stroke-miterlimit:10;" d="M273.885,252.355
			c-7.871-9.771-10.176-23.74-5.862-35.522c3.099-8.462,9.296-15.734,11.07-24.569c0.977-4.867,0.538-9.903,1.053-14.84
			c0.515-4.937,2.261-10.144,6.363-12.94"/>
		<path style="fill:none;stroke:#3F3F3F;stroke-width:0.5;stroke-miterlimit:10;" d="M248.084,162.121
			c4.705,5.161,6.63,12.372,6.735,19.355s-1.436,13.872-2.869,20.707c-1.432,6.835-2.77,13.793-2.25,20.757
			c1.098,14.726,10.068,25.55,23.83,30.904"/>
		<g>
			<path style="fill:#FC6E27;" d="M267.274,150.924l1.161,3.961c0,0-3.811,0.968-6.788,0l1.274-3.961"/>
			<path style="fill:#D65B2B;" d="M242.171,118.165c0,12.691,15.753,33.819,22.867,33.819c3.821,0,10.315-6.332,15.406-14.142
				c-1.968,0.48-8.512,1.382-19.863-3.715c-12.464-5.593-13.904-25.598-14.07-29.438
				C243.781,108.474,242.171,113.13,242.171,118.165z"/>
			<path style="fill:#FC6E27;" d="M246.512,104.689c0.166,3.839,1.606,23.845,14.07,29.438c11.351,5.097,17.895,4.195,19.863,3.715
				c4.21-6.46,7.464-13.933,7.464-19.677c0-12.691-10.238-22.982-22.871-22.982C257.42,95.183,250.672,98.93,246.512,104.689z"/>
			
				<ellipse transform="matrix(0.9441 -0.3297 0.3297 0.9441 -21.9879 97.119)" style="opacity:0.17;fill:#FFFFFF;" cx="275.295" cy="113.376" rx="8.478" ry="11.46"/>
		</g>
		<g>
			<path style="fill:#F9C662;" d="M284.894,173.524l-1.646,3.786c0,0-3.54-1.71-5.202-4.368l3.512-2.22"/>
			<path style="fill:#EFB754;" d="M287.027,131.872c-8.125,9.739-9.579,36.086-4.125,40.666c2.453,2.06,9.184,1.914,16.544,0.215
				c-5.52-4.272-18.685-17.646-10.111-43.276C288.522,130.208,287.751,131.005,287.027,131.872z"/>
			<path style="fill:#F9C662;" d="M289.336,129.478c-8.575,25.63,4.59,39.004,10.111,43.276c8.679-2.005,18.229-6.178,22.628-11.45
				c8.128-9.742,6.869-24.224-2.808-32.351C310.448,121.547,297.683,121.97,289.336,129.478z"/>
			
				<ellipse transform="matrix(0.3479 -0.9375 0.9375 0.3479 63.2425 393.7295)" style="opacity:0.17;fill:#FFFFFF;" cx="314.649" cy="151.404" rx="11.466" ry="8.474"/>
			<path style="fill:none;" d="M299.447,172.754c1.355,1.047,2.247,1.548,2.247,1.548"/>
		</g>
		<g>
			<path style="fill:#F9C662;" d="M254.298,173.425l3.19,2.607c0,0-2.595,2.964-5.594,3.858l-1.184-3.99"/>
			<path style="fill:#A02525;" d="M215.243,160.83c7.157,10.465,32.053,18.935,37.918,14.89c2.783-1.92,4.496-9.108,4.71-17.202
				c-7.504,3.466-28.614,11.016-45.642-3.932C212.896,156.756,213.897,158.861,215.243,160.83z"/>
			<path style="fill:#C13030;" d="M212.23,154.586c17.028,14.948,38.138,7.398,45.642,3.932c0.229-8.626-1.245-18.281-4.938-23.681
				c-7.157-10.465-21.394-13.13-31.802-5.953C212.68,134.713,209.353,145.236,212.23,154.586z"/>
			
				<ellipse transform="matrix(0.5941 -0.8044 0.8044 0.5941 -14.256 248.173)" style="opacity:0.17;fill:#FFFFFF;" cx="238.776" cy="138.212" rx="8.495" ry="11.437"/>
			<path style="fill:none;" d="M208.154,150.464c1.324,1.534,2.687,2.905,4.075,4.122"/>
		</g>
	</g>
	<polygon style="fill:#FFE0A9;" points="345.873,179.332 345.488,189.082 346.498,188.144 347.748,189.082 349.311,187.957 
		351.436,189.394 352.248,187.832 354.061,189.394 354.061,178.394 352.248,179.582 350.748,178.867 349.775,179.582 
		348.311,178.394 347.373,179.832 	"/>
	<g>
		<path style="opacity:0.13;fill:#272B3D;" d="M423.858,390c-19.484,16.03-29.388,29.34-117.228,23.36
			c-19.63-1.34-35.21-1.92-47.12-3.3c1.51,1.17,2.31,2.39,2.31,3.64c0,8.81-39.46,15.95-88.14,15.95s-88.15-7.14-88.15-15.95
			c0-8.8,39.47-15.94,88.15-15.94c23.62,0,45.08,1.68,60.9,4.42c-3.97-3.51-5.86-8.48-5.86-15.67
			c0-25.23,110.328-57.804,164.42-49.28C468.667,349.132,443.71,373.667,423.858,390z"/>
		<g id="XMLID_1_">
			<g>
				<path style="fill:#A02525;" d="M451.57,266.09c7.21,9.4-2.65,71.71-6.69,77.21c12.13-80.32-16.32-82.82-16.32-82.82
					S444.35,256.7,451.57,266.09z"/>
				<path style="fill:#A02525;" d="M428.56,260.48c0,0,28.45,2.5,16.32,82.82c-0.08,0.11-0.17,0.22-0.29,0.33
					c-1.9-7.15-5.51-11.98-9.65-11.98l-16.96-0.92c0,0-5.49,12.98-4.49,29.06c-3.1,1.39-6.15,2.74-8.99,3.98
					c-1.12-2.48-2.47-4.48-3.97-5.85c0.46-2.16,0.75-4.33,0.8-6.43l-2.25-0.04c7.37-40.39-2.91-75-8.58-88.06
					c-0.96-2.21-2.68-3.93-4.78-4.87v-0.01l0.09-0.19c0,0,19.93,3.86,36.31,1.38c0,0-3.28-33.38-16.36-64.2
					c-2.76-6.52-5.96-12.92-9.67-18.87c0,0-27.47-15.74-26.93-8.77c-1.03-11.36-10.22-12.83-10.22-12.83
					c12.05-0.54,40.27,18.94,40.27,18.94S416.08,199.64,428.56,260.48z M411.91,276.73c1.01-0.05,1.8-0.9,1.76-1.91l-0.03-0.62
					c-0.04-1.01-0.9-1.8-1.91-1.76l-10.85,0.45c-1.01,0.04-1.8,0.9-1.75,1.91l0.02,0.62c0.04,1.01,0.9,1.8,1.91,1.76L411.91,276.73z
					"/>
				<path style="fill:#3D3D3D;" d="M444.59,343.63c0.91,3.41,1.43,7.35,1.43,11.54c0,12.99-4.96,23.53-11.08,23.53
					s-11.08-10.54-11.08-23.53c0-0.05,0-0.09,0-0.14c1.92-0.9,3.79-1.79,5.57-2.66c-0.05,0.89-0.08,1.81-0.08,2.74
					c0,9.48,2.67,17.17,5.95,17.17s5.95-7.69,5.95-17.17c0-3.11-0.29-6.04-0.8-8.55C442.42,345.4,443.86,344.4,444.59,343.63z"/>
				<path style="fill:#A02525;" d="M434.94,331.65c4.14,0,7.75,4.83,9.65,11.98c-0.73,0.77-2.17,1.77-4.14,2.93
					c-1.02-5.15-2.95-8.61-5.15-8.61c-2.96,0-5.42,6.24-5.87,14.42c-1.78,0.87-3.65,1.76-5.57,2.66
					C423.9,342.1,428.84,331.65,434.94,331.65z"/>
				<path style="fill:#FCEF90;" d="M440.45,346.56c0.51,2.51,0.8,5.44,0.8,8.55c0,9.48-2.67,17.17-5.95,17.17s-5.95-7.69-5.95-17.17
					c0-0.93,0.03-1.85,0.08-2.74C433.8,350.23,437.65,348.23,440.45,346.56z"/>
				<path style="fill:#A02525;" d="M435.3,337.95c2.2,0,4.13,3.46,5.15,8.61c-2.8,1.67-6.65,3.67-11.02,5.81
					C429.88,344.19,432.34,337.95,435.3,337.95z"/>
				<path style="fill:#A02525;" d="M417.98,330.73l16.96,0.92c-6.1,0-11.04,10.45-11.08,23.38c-3.38,1.59-6.9,3.2-10.37,4.76
					C412.49,343.71,417.98,330.73,417.98,330.73z"/>
				<path style="fill:#262122;" d="M434.94,378.7h-6.67c-6.75,0-12.57-4.79-13.84-11.42c-0.49-2.54-0.79-5.05-0.94-7.49
					c3.47-1.56,6.99-3.17,10.37-4.76c0,0.05,0,0.09,0,0.14C423.86,368.16,428.82,378.7,434.94,378.7z"/>
				<path style="fill:#D2FEFF;" d="M405.76,195.5c13.08,30.82,16.36,64.2,16.36,64.2c-16.38,2.48-36.31-1.38-36.31-1.38
					c-0.01-0.76-0.2-2.33-0.53-4.54L405.76,195.5z"/>
				<path style="fill:#262122;" d="M413.67,274.82c0.04,1.01-0.75,1.86-1.76,1.91l-10.85,0.45c-1.01,0.04-1.87-0.75-1.91-1.76
					l-0.02-0.62c-0.05-1.01,0.74-1.87,1.75-1.91l10.85-0.45c1.01-0.04,1.87,0.75,1.91,1.76L413.67,274.82z"/>
				<path style="fill:#E1FFFF;" d="M405.76,195.5l-20.48,58.28c-0.78-5.22-2.34-13.99-4.19-23.98l15-53.17
					C399.8,182.58,403,188.98,405.76,195.5z"/>
				<path style="fill:#3D3D3D;" d="M404.5,363.77c2.24,4.91,3.62,11.68,3.62,19.17c0,14.99-5.55,27.15-12.4,27.15
					s-12.4-12.16-12.4-27.15c0-1.54,0.06-3.05,0.17-4.52c2.57,0.02,4.64,0.04,6.15,0.05c-0.11,1.41-0.17,2.88-0.17,4.39
					c0,10.95,2.98,19.82,6.66,19.82c3.67,0,6.65-8.87,6.65-19.82c0-7.19-1.29-13.48-3.2-16.95
					C401.12,365.25,402.77,364.53,404.5,363.77z"/>
				<path style="fill:#A02525;" d="M400.53,357.92c1.5,1.37,2.85,3.37,3.97,5.85c-1.73,0.76-3.38,1.48-4.92,2.14
					c-0.29-0.51-0.59-0.96-0.89-1.34C399.41,362.44,400.06,360.19,400.53,357.92z"/>
				<path style="fill:#7A2020;" d="M399.08,351.45l2.25,0.04c-0.05,2.1-0.34,4.27-0.8,6.43c-0.77-0.73-1.57-1.27-2.41-1.63
					C398.48,354.66,398.8,353.05,399.08,351.45z"/>
				<path style="fill:#FCEF90;" d="M399.58,365.91c1.91,3.47,3.2,9.76,3.2,16.95c0,10.95-2.98,19.82-6.65,19.82
					c-3.68,0-6.66-8.87-6.66-19.82c0-1.51,0.06-2.98,0.17-4.39c1.82,0.02,2.8,0.03,2.8,0.03s3-5.14,5.53-11.89
					C398.49,366.39,399.03,366.15,399.58,365.91z"/>
				<path style="fill:#C13030;" d="M245.56,296.66c-0.02-1.98-0.23-4.05-0.62-6.15c-0.88-4.68-2.59-8.86-4.79-12.17
					c-0.55-0.83-1.14-1.6-1.74-2.32l17.26,0.66l93.08,3.57c0,0,2.65-21.16,32.7-22.57c1.5-0.07,2.96,0.23,4.27,0.83v0.01
					c2.1,0.94,3.82,2.66,4.78,4.87c5.67,13.06,15.95,47.67,8.58,88.06l-135.11-2.32h-0.05l-40.96-0.7
					c-4.67-17.57-11.91-48.52-10.87-68.24c1.77,0.38,3.56,0.68,5.33,0.86c-1.22,4.22-1.47,9.36-0.46,14.71
					c2.33,12.39,10.48,21.27,18.2,19.82c6.42-1.21,10.52-9.15,10.4-18.9C245.56,296.68,245.57,296.67,245.56,296.66z M252.18,336.95
					c0.69,0.22,1.44,0.36,2.22,0.38l90.14,2.84c6.08,0.19,10.13-6.17,7.44-11.62c-5.21-10.57-13.7-20.23-26.14-26.24h-0.01
					c-9.29-4.49-20.78-6.93-34.75-6.19c-25.66,1.36-38.13,18.07-43.73,29.7C245.16,330.35,247.69,335.52,252.18,336.95z
					 M385.77,291.7c0.83-10.06-2.53-18.94-7.92-22.41c-1.35-0.87-2.82-1.4-4.38-1.53c-7.83-0.65-15.03,9.01-16.07,21.58
					c-1.05,12.57,4.46,23.28,12.29,23.93c7.4,0.61,14.23-7.97,15.84-19.5l0.01-0.01C385.63,293.08,385.71,292.4,385.77,291.7z
					 M382.49,337.06c1.46-2.04,4.39-10.96-3.76-11.11c-8.15-0.15-19.79,11.11-19.79,11.11S381.03,339.11,382.49,337.06z
					 M242.46,336.48c0,0-5.85-8.26-12.22-9.07c-6.36-0.8-3.8,9.07-3.8,9.07S238.95,338.16,242.46,336.48z"/>
				<path style="fill:#7A2020;" d="M263.97,349.13l135.11,2.32c-0.28,1.6-0.6,3.21-0.96,4.84c-0.78-0.34-1.58-0.51-2.4-0.51
					l-18.97-1.07c0,0-4.06,9.91-4.98,23.6c-13.63-0.15-32.56-0.36-52.27-0.64c0,0-32.15-0.65-55.88-4.84
					c-1.31-11.91-6.21-20.76-12.05-20.76l-4.56-0.26c7.12-2.34,16.15-2.66,16.91-2.68H263.97z"/>
				<path style="fill:#7A2020;" d="M398.12,356.29c0.84,0.36,1.64,0.9,2.41,1.63c-0.47,2.27-1.12,4.52-1.84,6.65
					c-0.79-0.98-1.66-1.52-2.56-1.52c-1.95,0-3.7,2.48-4.91,6.44c-0.77,2.49-1.32,5.57-1.58,8.98c-1.51-0.01-3.58-0.03-6.15-0.05
					c0.98-12.85,6.08-22.64,12.23-22.64C396.54,355.78,397.34,355.95,398.12,356.29z"/>
				<path style="fill:#7A2020;" d="M398.69,364.57c-0.24,0.69-0.48,1.38-0.72,2.04c-2.75,1.18-5.07,2.17-6.75,2.88
					c1.21-3.96,2.96-6.44,4.91-6.44C397.03,363.05,397.9,363.59,398.69,364.57z"/>
				<path style="fill:#7A2020;" d="M397.97,366.61c-2.53,6.75-5.53,11.89-5.53,11.89s-0.98-0.01-2.8-0.03
					c0.26-3.41,0.81-6.49,1.58-8.98C392.9,368.78,395.22,367.79,397.97,366.61z"/>
				<path style="fill:#D2FEFF;" d="M396.09,176.63l-15,53.17c-4.91-26.56-11.91-61.73-11.91-61.73c-0.01-0.07-0.02-0.14-0.02-0.21
					C368.62,160.89,396.09,176.63,396.09,176.63z"/>
				<path style="fill:#7A2020;" d="M376.75,354.71l18.97,1.07c-6.15,0-11.25,9.79-12.23,22.64c-3.2-0.03-7.16-0.07-11.72-0.11
					C372.69,364.62,376.75,354.71,376.75,354.71z"/>
				<path style="fill:#262122;" d="M395.72,410.09h-9.32c-6.13,0-11.56-4.13-12.98-10.09c-1.81-7.65-2.1-15.11-1.65-21.69
					c4.56,0.04,8.52,0.08,11.72,0.11c-0.11,1.47-0.17,2.98-0.17,4.52C383.32,397.93,388.87,410.09,395.72,410.09z"/>
				<path style="fill:#FFFAB6;" d="M377.85,269.29c5.39,3.47,8.75,12.35,7.92,22.41c-0.06,0.7-0.14,1.38-0.23,2.06l-0.01,0.01
					c-5.03,6.05-16.09,9.66-18.03-6.27C365.56,271.56,377.85,269.29,377.85,269.29z"/>
				<path style="fill:#A02525;" d="M366.35,178.16c-1.34-4.52-2.79-8.39-4.35-11.27c-1.46-2.68-4.28-4.33-7.34-4.4
					c-1.19-0.03-2.59-0.03-4.17,0c-14.23,0.2-42.97,2.44-58.02,7.7c0,0-6.2,0.93-18.74,69.67c-0.65,3.6-1.33,7.38-2.02,11.36
					c0,0,9.33,1.82,24.53,3.61c19.98,2.37,50.1,4.69,82.49,2.78C378.73,257.61,374.57,205.75,366.35,178.16z M385.81,258.32
					l-0.09,0.19c-1.31-0.6-2.77-0.9-4.27-0.83c-30.05,1.41-32.7,22.57-32.7,22.57l-93.08-3.57v-0.02c1.85,0,4.44-0.94,8.33-3.54
					c12.68-8.45-16.02-21.18-16.02-21.18v-0.01c10.59-1.84,19.12-1.88,19.12-1.88s9.94-83.07,26.03-87.02
					c10.9-2.68,40.48-6.86,65.81-8c0,0,9.19,1.47,10.22,12.83c0,0.07,0.01,0.14,0.02,0.21c0,0,7,35.17,11.91,61.73
					c1.85,9.99,3.41,18.76,4.19,23.98C385.61,255.99,385.8,257.56,385.81,258.32z"/>
				<path style="fill:#4F3339;" d="M378.73,325.95c8.15,0.15,5.22,9.07,3.76,11.11c-1.46,2.05-23.55,0-23.55,0
					S370.58,325.8,378.73,325.95z"/>
				<path style="fill:#FFDE8D;" d="M367.5,287.5c1.94,15.93,13,12.32,18.03,6.27c-1.61,11.53-8.44,20.11-15.84,19.5
					c-7.83-0.65-13.34-11.36-12.29-23.93c1.04-12.57,8.24-22.23,16.07-21.58c1.56,0.13,3.03,0.66,4.38,1.53
					C377.85,269.29,365.56,271.56,367.5,287.5z"/>
				<path style="fill:#D2FEFF;" d="M366.35,178.16c8.22,27.59,12.38,79.45,12.38,79.45c-32.39,1.91-62.51-0.41-82.49-2.78
					L366.35,178.16z"/>
				<path style="fill:#E1FFFF;" d="M366.35,178.16l-70.11,76.67c-15.2-1.79-24.53-3.61-24.53-3.61c0.69-3.98,1.37-7.76,2.02-11.36
					l76.76-77.37c1.58-0.03,2.98-0.03,4.17,0c3.06,0.07,5.88,1.72,7.34,4.4C363.56,169.77,365.01,173.64,366.35,178.16z"/>
				<path style="fill:#4F3339;" d="M351.98,328.55c2.69,5.45-1.36,11.81-7.44,11.62l-90.14-2.84c-0.78-0.02-1.53-0.16-2.22-0.38
					c2.38-3.27,26.09-34.02,73.65-34.64h0.01C338.28,308.32,346.77,317.98,351.98,328.55z"/>
				<path style="fill:#D2FEFF;" d="M350.49,162.49l-76.76,77.37c12.54-68.74,18.74-69.67,18.74-69.67
					C307.52,164.93,336.26,162.69,350.49,162.49z"/>
				<path style="fill:#601515;" d="M319.5,377.67c-19.17-0.26-39.08-0.59-55.58-0.98c-0.06-1.32-0.16-2.61-0.3-3.86
					C287.35,377.02,319.5,377.67,319.5,377.67z"/>
				<path style="fill:#3D232A;" d="M291.08,296.12c13.97-0.74,25.46,1.7,34.75,6.19c-47.56,0.62-71.27,31.37-73.65,34.64
					c-4.49-1.43-7.02-6.6-4.83-11.13C252.95,314.19,265.42,297.48,291.08,296.12z"/>
				<path style="fill:#7C2222;" d="M255.67,276.66v0.02l-17.26-0.66h-0.01c-0.47-0.56-0.96-1.07-1.46-1.56
					c1.73-1.96,3.31-4.41,4.68-7.46c2.36-5.22,2.18-9.83,0.37-13.85c2.04-0.48,4.05-0.88,5.99-1.21c0,0,28.7,12.73,16.02,21.18
					C260.11,275.72,257.52,276.66,255.67,276.66z"/>
				<path style="fill:#3D3D3D;" d="M263.92,376.69c0.03,0.84,0.05,1.68,0.05,2.54c0,15-5.55,27.16-12.4,27.16
					s-12.4-12.16-12.4-27.16c0-1.11,0.03-2.2,0.09-3.27c1.88,0.07,3.94,0.15,6.14,0.22c-0.05,0.97-0.08,1.97-0.08,2.98
					c0,10.94,2.98,19.82,6.66,19.82c3.67,0,6.65-8.88,6.65-19.82c0-0.89-0.02-1.76-0.06-2.61
					C260.31,376.6,262.09,376.65,263.92,376.69z"/>
				<path style="fill:#601515;" d="M222.96,348.43l40.96,0.7c-0.76,0.02-9.79,0.34-16.91,2.68l-14.41-0.8c0,0-1.8,4.39-3.27,11.35
					l-2.6-0.57C226.73,361.79,225.12,356.53,222.96,348.43z"/>
				<path style="fill:#601515;" d="M263.62,372.83c0.14,1.25,0.24,2.54,0.3,3.86c-1.83-0.04-3.61-0.09-5.35-0.14
					c-0.07-1.67-0.22-3.28-0.43-4.79C259.9,372.14,261.73,372.5,263.62,372.83z"/>
				<path style="fill:#7A2020;" d="M251.57,352.07c5.84,0,10.74,8.85,12.05,20.76c-1.89-0.33-3.72-0.69-5.48-1.07
					c-0.97-7.28-3.37-12.42-6.16-12.42c-2.34,0-4.39,3.58-5.59,9c-2.28-0.94-4.14-1.96-5.45-3.1
					C243.11,357.35,247.06,352.07,251.57,352.07z"/>
				<path style="fill:#FCEF90;" d="M258.57,376.55c0.04,0.85,0.06,1.72,0.06,2.61c0,10.94-2.98,19.82-6.65,19.82
					c-3.68,0-6.66-8.88-6.66-19.82c0-1.01,0.03-2.01,0.08-2.98C249.35,376.31,253.78,376.44,258.57,376.55z"/>
				<path style="fill:#601515;" d="M258.14,371.76c0.21,1.51,0.36,3.12,0.43,4.79c-4.79-0.11-9.22-0.24-13.17-0.37
					c0.14-2.86,0.49-5.52,0.99-7.84C249.59,369.65,253.62,370.79,258.14,371.76z"/>
				<path style="fill:#7A2020;" d="M251.98,359.34c2.79,0,5.19,5.14,6.16,12.42c-4.52-0.97-8.55-2.11-11.75-3.42
					C247.59,362.92,249.64,359.34,251.98,359.34z"/>
				<path style="fill:#7A2020;" d="M247.01,351.81l4.56,0.26c-4.51,0-8.46,5.28-10.63,13.17c-0.81-0.69-1.4-1.42-1.77-2.19
					C236.39,357.19,241.02,353.79,247.01,351.81z"/>
				<path style="fill:#262122;" d="M251.57,406.39h-9.05c-6.44,0-11.99-4.49-13.4-10.77c-1.62-7.16-1.91-14.14-1.53-20.37
					c2.1,0.25,6.16,0.49,11.67,0.71c-0.06,1.07-0.09,2.16-0.09,3.27C239.17,394.23,244.72,406.39,251.57,406.39z"/>
				<path style="fill:#601515;" d="M232.6,351.01l14.41,0.8c-5.99,1.98-10.62,5.38-7.84,11.24c0.37,0.77,0.96,1.5,1.77,2.19
					c-0.88,3.21-1.47,6.84-1.68,10.72c-5.51-0.22-9.57-0.46-11.67-0.71c0.28-4.83,0.96-9.22,1.74-12.89
					C230.8,355.4,232.6,351.01,232.6,351.01z"/>
				<path style="fill:#FFDE8D;" d="M245.56,296.68c0.12,9.75-3.98,17.69-10.4,18.9c-7.72,1.45-15.87-7.43-18.2-19.82
					c-1.01-5.35-0.76-10.49,0.46-14.71c7.15,0.74,14.11-0.49,19.52-6.59c0.5,0.49,0.99,1,1.46,1.56h0.01
					c0.6,0.72,1.19,1.49,1.74,2.32c0,0-16.41-1.76-14.93,19.83C226.69,319.4,245.55,310.61,245.56,296.68z"/>
				<path style="fill:#FFFAB6;" d="M245.56,296.66c0.01,0.01,0,0.02,0,0.02c-0.01,13.93-18.87,22.72-20.34,1.49
					c-1.48-21.59,14.93-19.83,14.93-19.83c2.2,3.31,3.91,7.49,4.79,12.17C245.33,292.61,245.54,294.68,245.56,296.66z"/>
				<path style="fill:#601515;" d="M246.39,368.34c-0.5,2.32-0.85,4.98-0.99,7.84c-2.2-0.07-4.26-0.15-6.14-0.22
					c0.21-3.88,0.8-7.51,1.68-10.72C242.25,366.38,244.11,367.4,246.39,368.34z"/>
				<path style="fill:#FFFFFF;" d="M241.99,253.15c1.81,4.02,1.99,8.63-0.37,13.85c-1.37,3.05-2.95,5.5-4.68,7.46
					c-3.1-2.96-6.7-4.43-10.21-3.77c-4.39,0.83-7.7,4.81-9.31,10.36c-1.77-0.18-3.56-0.48-5.33-0.86c0.23-4.38,0.87-8.2,2.04-11.2
					c5.28,0.2,10.07-0.98,12.16-5.13c0.16-0.32,0.19-0.67,0.09-1.03c0.58-1.48,0.69-3.04,0.42-4.64
					C231.63,255.95,236.9,254.32,241.99,253.15z"/>
				<path style="fill:#4F3339;" d="M230.24,327.41c6.37,0.81,12.22,9.07,12.22,9.07c-3.51,1.68-16.02,0-16.02,0
					S223.88,326.61,230.24,327.41z"/>
				<path style="fill:#231C18;" d="M238.19,410.64c1.26,5.85-20.26,6.24-25.68-4.29h7.87C220.38,406.35,236.92,404.79,238.19,410.64
					z"/>
				<path style="fill:#601515;" d="M226.73,361.79l2.6,0.57c-0.78,3.67-1.46,8.06-1.74,12.89c-0.88-0.1-1.42-0.2-1.58-0.31
					c-3.19-2.09-8.42-24.37-8.9-26.45c-0.02-0.07-0.03-0.12-0.03-0.14c0-0.01,0-0.02,0-0.02l5.88,0.1
					C225.12,356.53,226.73,361.79,226.73,361.79z"/>
				<path style="fill:#FFFFFF;" d="M226.73,270.69c3.51-0.66,7.11,0.81,10.21,3.77c-5.41,6.1-12.37,7.33-19.52,6.59
					C219.03,275.5,222.34,271.52,226.73,270.69z"/>
				<path style="fill:#FFFFFF;" d="M241.99,253.15c-5.09,1.17-10.36,2.8-15.19,5.04c-1.98-12.56-26.38-27.8-27.3-28.38
					C200.69,230.04,234.7,236.85,241.99,253.15z"/>
				<path style="fill:#EDEDE8;" d="M226.8,258.19c0.27,1.6,0.16,3.16-0.42,4.64c-0.24-0.93-1.26-1.96-2.77-3.03
					C224.65,259.23,225.71,258.7,226.8,258.19z"/>
				<path style="fill:#A02525;" d="M226.38,262.83c0.1,0.36,0.07,0.71-0.09,1.03c-2.09,4.15-6.88,5.33-12.16,5.13
					c0.86-2.25,2.03-4.04,3.54-5.25c1.82-1.46,3.82-2.77,5.94-3.94C225.12,260.87,226.14,261.9,226.38,262.83z"/>
				<path style="fill:#FFD7B6;" d="M214.9,157.82c3.63-0.7,10.63-0.92,10.31,11.61c-0.37,14.34-9.78,14.71-9.78,14.71l-15.18,42.19
					c0,0,0.1,1.07-1.58,2.16c-1.95,1.25-6.29,2.52-15.95,2.14l-0.1-0.18l-0.05,0.17c-0.96-0.04-1.97-0.1-3.04-0.17
					c-1.97-0.14-4.01-0.32-6.09-0.53c-23.72-2.48-53.06-9.99-58.66-18.57c-12.94-19.83-10.02-62.87-9.76-66.39
					c17.11-1.11,41.98-2.17,61.69-2.93c17.72-0.68,31.28-1.12,31.28-1.12c0.34,0,0.13,44.63,3.87,45.26
					c3.74,0.64,3.37-26.05,11.72-28.05C213.93,158.04,214.38,157.93,214.9,157.82z M220.46,171.99c0-4.57-2.22-8.27-4.95-8.27
					c-2.73,0-4.95,3.7-4.95,8.27c0,4.57,2.22,8.28,4.95,8.28C218.24,180.27,220.46,176.56,220.46,171.99z M187.74,174.43
					c0-5.23-2.79-9.47-6.23-9.47c-3.44,0-6.23,4.24-6.23,9.47c0,5.24,2.79,9.48,6.23,9.48
					C184.95,183.91,187.74,179.67,187.74,174.43z M179.75,217.8c11.08-7.36,0.19-18.39,0.19-18.39l-18.46,15.75
					C161.48,215.16,167.93,225.65,179.75,217.8z M149.07,201.59c0,0,0.36-19.14-6.56-25.84c-6.92-6.69-1.29,12.97-6.64,14.24
					c-2.97,0.7-6.83,0.12-9.78,1.3c-0.02,0.01-0.03,0.01-0.03,0.01c-2.37,0.95-4.14,3.04-4.41,7.84
					C121.05,209.93,145.1,205.6,149.07,201.59z M126.54,174.43c0-5.23-2.63-9.47-5.88-9.47s-5.88,4.24-5.88,9.47
					c0,5.24,2.63,9.48,5.88,9.48S126.54,179.67,126.54,174.43z"/>
				<path style="fill:#EDEDE8;" d="M226.8,258.19c-1.09,0.51-2.15,1.04-3.19,1.61c-6.48-4.6-21.86-9.86-22.34-10.03l-1.8-19.97
					c0,0,0.01,0.01,0.03,0.01C200.42,230.39,224.82,245.63,226.8,258.19z"/>
				<path style="fill:#272B3D;" d="M217.11,348.49c4.17,29.43,3.27,57.86,3.27,57.86h-7.87c0,0-24.21-86.05-37.31-72.45
					c-13.09,13.6-20.57,71.28-20.57,71.28H144.1c-2.78-50.6,7.67-95.36,7.67-95.36h17.8h37.92c4.66,11.27,7.66,24.99,9.59,38.51
					h-0.01c0,0,0,0.01,0.01,0.02C217.08,348.37,217.09,348.42,217.11,348.49z"/>
				<path style="fill:#EFAC7F;" d="M215.51,163.72c2.73,0,4.95,3.7,4.95,8.27c0,4.57-2.22,8.28-4.95,8.28
					c-2.73,0-4.95-3.71-4.95-8.28C210.56,167.42,212.78,163.72,215.51,163.72z"/>
				<path style="fill:#8E512F;" d="M214.9,157.82l-10.23-28.15c0,0-28.84,9.51-38.02,9.63c-0.66,0-1.21-0.04-1.65-0.13
					c-6.58-1.42,0-6.67,0-6.67s-64.69,12.78-68,8.17s6.67-7.67,6.67-7.67c-9.59,0.75-17.83-3.55-17.83-3.55s-22.57-15.84-8.24-31.39
					c14.33-15.56,37.87,6.5,45.62,17.25s77.26-1.84,84.46,5.94C214.8,128.94,214.9,157.19,214.9,157.82z"/>
				<path style="fill:#7C4225;" d="M204.67,129.67l10.23,28.15c-0.52,0.11-0.97,0.22-1.32,0.3c-8.35,2-7.98,28.69-11.72,28.05
					c-3.74-0.63-3.53-45.26-3.87-45.26c0,0-13.56,0.44-31.28,1.12l-0.06-2.73C175.83,139.18,204.67,129.67,204.67,129.67z"/>
				<path style="fill:#FFFFFF;" d="M214.13,268.99c-1.17,3-1.81,6.82-2.04,11.2c-2.81-0.6-5.6-1.39-8.29-2.19l-0.99-10.95
					C206.29,268.01,210.33,268.85,214.13,268.99z"/>
				<path style="fill:#FFFFFF;" d="M204.47,283.77l3.02,26.05h-37.92v-2.85l12.18-12.58c0,0-2.91-9.55-4.15-22.24
					c0.01,0,0.02,0.01,0.03,0.03C178.46,273.13,194.52,291.29,204.47,283.77z"/>
				<path style="fill:#EDEDE8;" d="M203.8,278l0.67,5.77c-9.95,7.52-26.01-10.64-26.84-11.59c0.7,0.7,1.66,1.2,2.94,1.39
					c7.8,1.16,12.84,0.31,12.84,0.31h0.01l-0.04,0.92C193.38,274.8,197.96,276.27,203.8,278z"/>
				<path style="fill:#FFFFFF;" d="M193.78,264.37v-0.01l0.02-0.39c0,0,3.89,1.66,9.01,3.08L203.8,278
					c-5.84-1.73-10.42-3.2-10.42-3.2l0.04-0.92L193.78,264.37z"/>
				<path style="fill:#FFFFFF;" d="M201.27,249.77l0.45,5.04l1.09,12.24c-5.12-1.42-9.01-3.08-9.01-3.08l-0.02,0.39
					c-0.34-0.4-7.01-8.57-3.64-14.79c3.46-6.39-11.54-3.51-5.87,10.31c0,0-4.06-1.43-5.71-0.77c-0.42,0.17-1,1.12-1.51,2.46
					c-0.02-7.34,0.75-15.1,3.01-22.32l2.51-8.63c0.05,0,0.1,0.01,0.15,0.01l4.35,7.58l11.72-9.26l0.68,0.85L201.27,249.77z"/>
				<path style="fill:#EDEDE8;" d="M198.67,228.49l0.27,0.34l-0.15,0.12l-11.72,9.26l-4.35-7.58
					C192.38,231.01,196.72,229.74,198.67,228.49z"/>
				<path style="fill:#FFD7B6;" d="M193.78,264.36v0.01l-0.36,9.51h-0.01c0,0-5.04,0.85-12.84-0.31c-1.28-0.19-2.24-0.69-2.94-1.39
					c-0.01-0.02-0.02-0.03-0.03-0.03v-0.01c-0.33-3.34-0.54-6.91-0.55-10.57c0.51-1.34,1.09-2.29,1.51-2.46
					c1.65-0.66,5.71,0.77,5.71,0.77c-5.67-13.82,9.33-16.7,5.87-10.31C186.77,255.79,193.44,263.96,193.78,264.36z"/>
				<path style="fill:#4F3339;" d="M181.51,164.96c3.44,0,6.23,4.24,6.23,9.47c0,5.24-2.79,9.48-6.23,9.48
					c-3.44,0-6.23-4.24-6.23-9.48C175.28,169.2,178.07,164.96,181.51,164.96z"/>
				<path style="fill:#FFFFFF;" d="M182.62,230.45l0.1,0.18c-0.05,0-0.1-0.01-0.15-0.01L182.62,230.45z"/>
				<path style="fill:#7A2020;" d="M182.57,230.62l-2.51,8.63l-6.08-0.49l-0.3-8.43c-0.08-0.09-0.17-0.15-0.27-0.17l0.03-0.24
					c2.08,0.21,4.12,0.39,6.09,0.53C180.6,230.52,181.61,230.58,182.57,230.62z"/>
				<path style="fill:#C13030;" d="M181.75,294.39l-12.18,12.58l-7.27-15.88c-1.73-19.54,11.68-52.33,11.68-52.33l6.08,0.49
					c-2.26,7.22-3.03,14.98-3.01,22.32c-1.15,3.03-1.89,8.07,0.55,10.57v0.01C178.84,284.84,181.75,294.39,181.75,294.39z"/>
				<path style="fill:#FFFFFF;" d="M179.94,199.41c0,0,10.89,11.03-0.19,18.39c-11.82,7.85-18.27-2.64-18.27-2.64L179.94,199.41z"/>
				<path style="fill:#FFD7B6;" d="M177.05,261.57c0.01,3.66,0.22,7.23,0.55,10.57C175.16,269.64,175.9,264.6,177.05,261.57z"/>
				<path style="fill:#FFFFFF;" d="M159.72,263.99c0-0.04,0.02-0.08,0.03-0.12c5.67-20.23,11.95-30.11,12.25-30.76v-0.02
					c0.01-0.01,0.01-0.01,0.01-0.01l1.67-2.75l0.3,8.43c0,0-13.41,32.79-11.68,52.33l7.27,15.88v2.85h-17.8
					C153.36,290.93,156.43,275.72,159.72,263.99z"/>
				<path style="fill:#EDEDE8;" d="M173.68,230.33l-1.67,2.75c0,0,0,0-0.01,0.01v0.02c-0.3,0.65-6.58,10.53-12.25,30.76h-0.01
					c0,0-8.89-8.02-9.28-16.77c16.55-5.39,21.09-17.36,22.95-16.94C173.51,230.18,173.6,230.24,173.68,230.33z"/>
				<path style="fill:#7C4225;" d="M105.02,144.96c-4.66,0.3-8.74,0.6-11.98,0.9c-25.89,2.41-12.6-13.29-7.2-16.41
					c0,0,8.24,4.3,17.83,3.55c0,0-9.98,3.06-6.67,7.67s68-8.17,68-8.17s-6.58,5.25,0,6.67c0.44,0.09,0.99,0.13,1.65,0.13l0.06,2.73
					C147,142.79,122.13,143.85,105.02,144.96z"/>
				<path style="fill:#FFFFFF;" d="M159.75,263.87c-0.01,0.04-0.03,0.08-0.03,0.12c-47.84,11.91-66.1-16.55-66.1-16.55
					c0.09-0.34,0.24-0.58,0.41-0.76c0.1,0.05,0.21,0.09,0.31,0.13c0.26-0.32,0.53-0.61,0.81-0.88c0.2-0.12,0.4-0.26,0.57-0.47
					c0.01-0.01,0.02-0.01,0.02-0.02c1.7-1.3,3.49-1.69,3.49-1.69c24.11,7.63,40.29,6.93,51.23,3.35c0.39,8.75,9.28,16.77,9.28,16.77
					H159.75z"/>
				<path style="fill:#231C18;" d="M144.1,405.18h10.53c-6.93,9.72-34.08,11.04-30.42,4.39C127.86,402.91,144.1,405.18,144.1,405.18
					z"/>
				<path style="fill:#EFAC7F;" d="M142.51,175.75c6.92,6.7,6.56,25.84,6.56,25.84c-5.05-14-22.21-10.46-22.98-10.3
					c2.95-1.18,6.81-0.6,9.78-1.3C141.22,188.72,135.59,169.06,142.51,175.75z"/>
				<path style="fill:#EFAC7F;" d="M149.07,201.59c-3.97,4.01-28.02,8.34-27.42-2.45c0.27-4.8,2.04-6.89,4.41-7.84
					c0,0,0.01,0,0.03-0.01C126.86,191.13,144.02,187.59,149.07,201.59z"/>
				<path style="fill:#4F3339;" d="M120.66,164.96c3.25,0,5.88,4.24,5.88,9.47c0,5.24-2.63,9.48-5.88,9.48s-5.88-4.24-5.88-9.48
					C114.78,169.2,117.41,164.96,120.66,164.96z"/>
				<path style="fill:#EFBF9C;" d="M95.74,245.44c0,0.01-0.01,0.01-0.02,0.02c-0.19,0.14-0.38,0.3-0.57,0.47
					c-0.39,0.24-0.8,0.41-1.12,0.75c-3.21-1.31-5.89-2.71-8.12-4.18v-0.01c-2.55-4.08-1.06-5.9-1.06-5.9s6.44,7.03,9.5,3.32
					c1.3-1.57,1.34-3.47,0.34-5.23c0.73-0.94,1.74-2.83,0.34-5.07c0.08-0.1,0.14-0.23,0.2-0.35c3.47-6.25-1.42-5.69-3.52-8.19
					c-0.59-0.7-0.96-1.64-0.86-3.04c0.14-1.97,1.75-3.15,3.87-3.34c3.21-0.29,7.56,1.68,9.63,6.57c3.44,8.12-5.12,22.49-5.12,22.49
					S97.44,244.14,95.74,245.44z"/>
				<path style="fill:#EAEAEA;" d="M93.45,190.14l2.92,6.02l-3.42,0.92l3.03,3.01l-1.97,1.22l-1.38,10.6
					c-0.24-0.06-0.5-0.11-0.8-0.15c-1.88-0.25-3.86-0.76-5.48-0.69l4.86-22L93.45,190.14z"/>
				<path style="fill:#FFCBAE;" d="M95.03,229.61c1.4,2.24,0.39,4.13-0.34,5.07c-0.81-1.42-2.29-2.74-4.33-3.71
					c-1.39-0.66-3.03-1.16-4.9-1.43c-8.03-1.13-6.92,5.77-6.92,5.77c-1.71-2.61-2.69-5.39-3.26-8.31c0,0,2.07-2.77,6.39-3.18
					c2.16-0.22,4.89,0.16,8.21,1.79C92.68,226.98,94.24,228.35,95.03,229.61z"/>
				<path style="fill:#FFD7B6;" d="M94.69,234.68c1,1.76,0.96,3.66-0.34,5.23c-3.06,3.71-9.5-3.32-9.5-3.32s-1.49,1.82,1.06,5.9
					c-3.36-2.21-5.71-4.62-7.37-7.18c0,0-1.11-6.9,6.92-5.77c1.87,0.27,3.51,0.77,4.9,1.43C92.4,231.94,93.88,233.26,94.69,234.68z"
					/>
				<path style="fill:#EFBF9C;" d="M94.03,246.68c0.32-0.34,0.73-0.51,1.12-0.75c-0.28,0.27-0.55,0.56-0.81,0.88
					C94.24,246.77,94.13,246.73,94.03,246.68z"/>
				<path style="fill:#262122;" d="M94.69,214.41l0.03,0.28c-2.12,0.19-3.73,1.37-3.87,3.34c-0.1,1.4,0.27,2.34,0.86,3.04H91.7
					c-5.23,0.74-8.59-1.22-8.59-1.22c2.36-3.62,1.71-5.76,0-6.49v-0.01c0.53-1.67,1.74-2.22,3.24-2.28c1.62-0.07,3.6,0.44,5.48,0.69
					c0.3,0.04,0.56,0.09,0.8,0.15C95.33,212.58,94.69,214.41,94.69,214.41z"/>
				<path style="fill:#EFBF9C;" d="M83.11,213.36c1.71,0.73,2.36,2.87,0,6.49c-0.95,1.45-1.39,2.78-1.44,3.97
					c-4.32,0.41-6.39,3.18-6.39,3.18c-0.36-1.86-0.56-3.77-0.68-5.74c-0.4-6.38,5.59-9.16,8.51-7.91V213.36z"/>
			</g>
		</g>
		<path style="fill:#4F3339;" d="M178.125,156.75c1.278-0.892,2.825-1.261,4.383-1.299c1.561-0.022,3.175,0.37,4.589,1.163
			c1.407,0.789,2.645,1.941,3.396,3.333c0.437,0.657,0.655,1.424,0.891,2.147c0.174,0.751,0.254,1.52,0.241,2.281
			c-0.61-0.522-1.032-1.086-1.535-1.577c-0.528-0.468-0.927-0.995-1.451-1.391c-0.929-0.897-1.95-1.567-2.996-2.169
			c-1.054-0.594-2.193-1.072-3.442-1.456C180.95,157.396,179.625,157.082,178.125,156.75z"/>
		<path style="fill:#4F3339;" d="M123.751,157.331c-1.278-0.892-2.825-1.261-4.383-1.299c-1.561-0.022-3.175,0.37-4.589,1.163
			c-1.407,0.789-2.645,1.941-3.396,3.333c-0.437,0.657-0.655,1.424-0.891,2.147c-0.174,0.751-0.254,1.52-0.241,2.281
			c0.61-0.522,1.032-1.086,1.535-1.577c0.528-0.468,0.927-0.995,1.451-1.391c0.929-0.897,1.95-1.567,2.996-2.169
			c1.054-0.594,2.193-1.072,3.442-1.456C120.927,157.977,122.251,157.663,123.751,157.331z"/>
		<path style="opacity:0.21;fill:#FFFFFF;" d="M241.373,325.886c2.206-7.262,6.391-13.898,11.672-19.444
			c5.339-5.511,11.794-9.956,18.869-13.084c3.529-1.569,7.197-2.836,10.94-3.83c3.749-0.975,7.601-1.534,11.457-1.698
			c3.858-0.142,7.714,0.008,11.515,0.519c3.8,0.497,7.55,1.303,11.168,2.521l-0.069,0.394c-3.8-0.085-7.541-0.17-11.26-0.106
			c-3.718,0.079-7.409,0.256-11.063,0.662c-3.655,0.383-7.279,0.893-10.878,1.572c-3.604,0.659-7.156,1.632-10.593,2.926
			c-6.852,2.603-13.261,6.517-18.685,11.552c-5.469,4.982-9.91,11.173-12.695,18.149L241.373,325.886z"/>
		<g>
			<g>
				<path style="fill:#FFFFFF;" d="M373.437,274.436c-4.079,3.313-5.005,8.737-2.569,13.323c0.906,1.706,3.497,0.192,2.59-1.514
					c-1.853-3.487-0.911-7.243,2.1-9.687C377.058,275.34,374.924,273.229,373.437,274.436L373.437,274.436z"/>
			</g>
		</g>
		<path style="opacity:0.21;fill:#FFFFFF;" d="M371.209,263.796c-3.303,1.071-6.301,2.826-8.789,5.101
			c-1.258,1.118-2.398,2.354-3.409,3.679c-1.025,1.311-1.923,2.713-2.678,4.177c-0.763,1.468-1.325,3.031-1.778,4.611l-1.363,4.736
			c-0.461,1.589-0.872,3.209-1.287,4.866c-0.401,1.66-0.774,3.355-1.258,5.118l-0.399,0.021c-0.663-1.722-1.004-3.525-1.149-5.345
			c-0.158-1.823-0.086-3.668,0.18-5.493c0.27-1.824,0.797-3.618,1.571-5.304c0.782-1.684,1.717-3.287,2.722-4.83
			c2.014-3.098,4.614-5.772,7.619-7.814c3.015-2.009,6.412-3.451,9.928-3.913L371.209,263.796z"/>
		<g>
			<g>
				<path style="fill:#FFFFFF;" d="M227.055,292.727c-1.245,4.846,0.016,9.768,3.402,13.442c1.311,1.423,3.429-0.703,2.121-2.121
					c-2.659-2.884-3.605-6.73-2.63-10.523C230.428,291.653,227.536,290.855,227.055,292.727L227.055,292.727z"/>
			</g>
		</g>
		<path style="opacity:0.21;fill:#FFFFFF;" d="M223.966,341.406c-0.803-2.514-1.499-5.047-2.253-7.57
			c-0.718-2.53-1.404-5.066-2.056-7.608c-0.328-1.271-0.729-2.528-1.107-3.789c-0.37-1.263-0.622-2.548-0.753-3.856
			c-0.126-1.309-0.192-2.63-0.151-3.971c0.029-1.339,0.133-2.691,0.452-4.085l0.393-0.075c0.808,1.18,1.401,2.4,1.919,3.635
			c0.531,1.232,0.954,2.485,1.316,3.749c0.358,1.265,0.594,2.553,0.714,3.864c0.111,1.312,0.199,2.628,0.36,3.931
			c0.325,2.604,0.618,5.215,0.877,7.832c0.224,2.624,0.506,5.236,0.681,7.869L223.966,341.406z"/>
		<path style="opacity:0.21;fill:#FFFFFF;" d="M276.251,354.744l30.488,0.014l30.483,0.214c10.16,0.098,20.33-0.151,30.478,0.413
			l7.611,0.438l3.804,0.267c1.236,0.081,2.622,0.169,3.972,0.465c1.348,0.287,2.764,0.723,4.016,1.661
			c1.273,0.929,2.119,2.528,2.11,4.083c-0.006,1.587-0.735,2.899-1.542,3.95c-0.822,1.067-1.805,1.926-2.809,2.728l-0.281-0.284
			c0.788-0.993,1.544-2.01,2.095-3.084c0.546-1.064,0.905-2.209,0.714-3.19c-0.172-0.987-0.755-1.789-1.618-2.251
			c-0.872-0.473-1.965-0.737-3.117-0.833c-1.161-0.112-2.323-0.061-3.624-0.046l-3.813,0.063l-7.623,0.032
			c-10.164,0.022-20.305-0.768-30.456-1.213l-30.451-1.413l-30.446-1.613L276.251,354.744z"/>
	</g>
	<polygon style="opacity:0.13;fill:#272B3D;" points="274.725,239.357 266.241,197.203 364.135,181.426 370.151,225.599 	"/>
	<polygon style="fill:#FFFFFF;" points="273.525,238.903 265.04,196.749 362.934,180.972 368.95,225.145 	"/>
	<polygon style="fill:#FFE0A9;" points="345.873,179.332 345.488,189.082 346.498,188.144 347.748,189.082 349.311,187.957 
		351.436,189.394 352.248,187.832 354.061,189.394 354.061,178.394 352.248,179.582 350.748,178.867 349.775,179.582 
		348.311,178.394 347.373,179.832 	"/>
	<polygon style="fill:#FFE0A9;" points="287.558,189.461 290.5,198.764 291.132,197.54 292.626,197.999 293.715,196.411 
		296.201,197.043 296.436,195.298 298.671,196.153 294.943,185.804 293.64,187.536 291.987,187.371 291.313,188.374 
		289.534,187.753 289.139,189.423 	"/>
	<g>
		<path style="fill:#545454;" d="M302.169,217.669c0.279,1.67-0.091,3.093-1.107,4.265c-1.018,1.174-2.505,1.924-4.462,2.251
			c-2.352,0.393-4.2,0.425-5.545,0.096l-0.233-1.396c1.489,0.381,3.308,0.39,5.458,0.031c1.58-0.264,2.77-0.849,3.57-1.757
			c0.8-0.907,1.098-1.973,0.894-3.195c-0.127-0.758-0.385-1.359-0.775-1.806c-0.39-0.446-0.967-0.816-1.728-1.112
			c-0.763-0.294-1.854-0.568-3.275-0.817c-2.084-0.375-3.568-0.908-4.455-1.6c-0.887-0.691-1.443-1.718-1.671-3.077
			c-0.25-1.496,0.109-2.812,1.08-3.943c0.97-1.134,2.341-1.847,4.114-2.144c1.808-0.302,3.564-0.229,5.272,0.217l-0.286,1.286
			c-1.713-0.427-3.298-0.519-4.755-0.275c-1.422,0.237-2.496,0.768-3.225,1.594c-0.729,0.824-0.994,1.826-0.798,3.003
			c0.124,0.74,0.354,1.325,0.693,1.755c0.338,0.433,0.832,0.789,1.483,1.068c0.651,0.282,1.736,0.566,3.255,0.856
			c1.592,0.289,2.806,0.623,3.645,1.004c0.84,0.38,1.486,0.863,1.94,1.449C301.713,216.008,302.017,216.756,302.169,217.669z"/>
		<path style="fill:#545454;" d="M315.187,213.539l-7.82,1.306l-1.505,7.513l-1.488,0.249l4.385-21.389l0.855-0.143l10.938,18.831
			l-1.514,0.252L315.187,213.539z M307.644,213.505l6.884-1.149l-3.823-6.777c-0.313-0.53-0.709-1.271-1.184-2.223
			c-0.091,0.916-0.217,1.752-0.379,2.511L307.644,213.505z"/>
		<path style="fill:#545454;" d="M323.277,219.45l-3.342-20.015l1.343-0.225l3.122,18.701l9.175-1.532l0.22,1.313L323.277,219.45z"
			/>
		<path style="fill:#545454;" d="M347.629,215.383l-10.518,1.756l-3.343-20.015l10.518-1.756l0.215,1.286l-9.175,1.532l1.265,7.571
			l8.661-1.446l0.215,1.287l-8.661,1.446l1.433,8.583l9.175-1.532L347.629,215.383z"/>
	</g>
	<g>
		<path style="fill:none;stroke:#3F3F3F;stroke-width:0.5;stroke-miterlimit:10;" d="M385.729,258.06
			c6.691-4.39,10.347-12.373,11.314-20.318c0.967-7.944-0.413-15.969-1.884-23.836s-3.045-15.828-2.466-23.81
			c0.733-10.111,4.637-24.025,2.493-33.934"/>
		<path style="fill:none;stroke:#3F3F3F;stroke-width:0.5;stroke-miterlimit:10;" d="M385.455,256.831
			c7.871-9.771,10.176-23.74,5.862-35.522c-3.099-8.462-9.296-15.734-11.07-24.569c-0.977-4.867-0.538-9.903-1.053-14.84
			c-0.515-4.937-2.261-10.144-6.363-12.94"/>
		<path style="fill:none;stroke:#3F3F3F;stroke-width:0.5;stroke-miterlimit:10;" d="M411.256,166.597
			c-4.705,5.161-6.63,12.372-6.735,19.355c-0.105,6.983,1.436,13.872,2.869,20.707c1.432,6.835,2.77,13.793,2.25,20.757
			c-1.098,14.726-10.068,25.55-23.83,30.904"/>
		<g>
			<path style="fill:#FC6E27;" d="M392.951,155.104l-1.161,3.961c0,0,3.811,0.968,6.788,0l-1.274-3.961"/>
			<path style="fill:#EFB754;" d="M418.054,122.345c0,12.691-15.753,33.819-22.867,33.819c-3.821,0-10.315-6.332-15.406-14.142
				c1.968,0.48,8.512,1.382,19.863-3.715c12.464-5.593,13.904-25.598,14.07-29.438C416.444,112.654,418.054,117.31,418.054,122.345z
				"/>
			<path style="fill:#F9C662;" d="M413.713,108.869c-0.166,3.839-1.606,23.845-14.07,29.438
				c-11.351,5.097-17.895,4.195-19.863,3.715c-4.21-6.46-7.464-13.933-7.464-19.677c0-12.691,10.238-22.982,22.871-22.982
				C402.805,99.363,409.553,103.109,413.713,108.869z"/>
			
				<ellipse transform="matrix(0.3297 -0.9441 0.9441 0.3297 147.0199 442.1925)" style="opacity:0.17;fill:#FFFFFF;" cx="384.93" cy="117.555" rx="11.46" ry="8.478"/>
		</g>
		<g>
			<path style="fill:#F9C662;" d="M372.174,167.407l0.311,4.117c0,0,3.905-0.452,6.348-2.417l-2.587-3.25"/>
			<path style="fill:#D65B2B;" d="M383.846,127.367c4.474,11.868-2.81,37.23-9.467,39.763c-2.993,1.139-9.303-1.21-15.696-5.233
				c6.618-2.221,23.446-10.526,23.769-37.551C382.981,125.303,383.447,126.31,383.846,127.367z"/>
			<path style="fill:#FC6E27;" d="M382.452,124.346c-0.323,27.025-17.151,35.33-23.769,37.551
				c-7.539-4.746-15.187-11.825-17.609-18.249c-4.475-11.871,1.472-25.136,13.282-29.632
				C365.118,109.92,377.036,114.513,382.452,124.346z"/>
			
				<ellipse transform="matrix(0.9998 -0.0205 0.0205 0.9998 -2.7303 7.234)" style="opacity:0.17;fill:#FFFFFF;" cx="351.34" cy="136.738" rx="8.474" ry="11.466"/>
			<path style="fill:none;" d="M358.683,161.897c-1.624,0.544-2.631,0.724-2.631,0.724"/>
		</g>
		<g>
			<path style="fill:#FC6E27;" d="M409.131,165.717l-2.82,3.003c0,0,2.962,2.597,6.053,3.089l0.649-4.111"/>
			<path style="fill:#A02525;" d="M446.191,148.098c-5.719,11.315-29.286,22.984-35.632,19.746
				c-3.012-1.537-5.654-8.438-6.93-16.434c7.894,2.449,29.813,7.159,44.729-9.898C447.982,143.751,447.267,145.969,446.191,148.098z
				"/>
			<path style="fill:#C13030;" d="M448.358,141.512c-14.915,17.057-36.834,12.347-44.729,9.898
				c-1.361-8.521-1.169-18.286,1.782-24.124c5.719-11.315,19.483-15.829,30.743-10.082
				C445.299,121.871,449.981,131.865,448.358,141.512z"/>
			
				<ellipse transform="matrix(0.7193 -0.6947 0.6947 0.7193 28.4005 327.8305)" style="opacity:0.17;fill:#FFFFFF;" cx="419.889" cy="128.77" rx="11.437" ry="8.495"/>
			<path style="fill:none;" d="M451.856,136.89c-1.111,1.694-2.282,3.233-3.498,4.622"/>
		</g>
	</g>
</g>
<g id="DESIGNED_BY_FREEPIK">
	<g id="XMLID_76_">
		<g>
			<g id="XMLID_486_">
				<path id="XMLID_507_" style="fill:#2D2D38;" d="M181.087,478.644c-0.246,0-0.435,0.085-0.567,0.255
					c-0.133,0.17-0.199,0.422-0.199,0.754v2.392c-0.304-0.331-0.617-0.578-0.937-0.739c-0.321-0.159-0.715-0.239-1.182-0.239
					c-0.807,0-1.457,0.283-1.953,0.848c-0.494,0.566-0.742,1.356-0.742,2.369c0,0.478,0.063,0.924,0.188,1.335
					c0.124,0.412,0.307,0.77,0.549,1.074c0.241,0.305,0.526,0.54,0.857,0.704c0.33,0.164,0.689,0.246,1.078,0.246
					c0.293,0,0.563-0.04,0.809-0.122c0.247-0.081,0.477-0.2,0.689-0.356c0.212-0.156,0.427-0.359,0.644-0.608v0.161
					c0,0.296,0.072,0.524,0.217,0.685c0.145,0.161,0.328,0.241,0.549,0.241c0.226,0,0.409-0.078,0.552-0.232
					c0.143-0.154,0.213-0.386,0.213-0.694v-7.147c0-0.306-0.066-0.534-0.199-0.691C181.521,478.722,181.332,478.644,181.087,478.644
					z M180.022,485.485c-0.141,0.306-0.329,0.533-0.564,0.682c-0.236,0.149-0.496,0.224-0.781,0.224
					c-0.281,0-0.539-0.079-0.778-0.236c-0.237-0.155-0.424-0.388-0.561-0.696c-0.136-0.309-0.205-0.683-0.205-1.122
					c0-0.415,0.064-0.78,0.193-1.095c0.128-0.315,0.31-0.556,0.543-0.724s0.499-0.253,0.795-0.253c0.285,0,0.547,0.082,0.787,0.246
					c0.239,0.165,0.429,0.402,0.569,0.712c0.141,0.312,0.21,0.683,0.21,1.113C180.232,484.794,180.163,485.177,180.022,485.485z"/>
				<path id="XMLID_504_" style="fill:#2D2D38;" d="M188.452,484.565c0.233-0.122,0.35-0.385,0.35-0.793
					c0-0.439-0.113-0.871-0.338-1.294c-0.225-0.423-0.564-0.77-1.019-1.035c-0.453-0.268-0.996-0.4-1.628-0.4
					c-0.487,0-0.93,0.077-1.33,0.233c-0.4,0.157-0.737,0.381-1.009,0.674c-0.273,0.293-0.48,0.645-0.623,1.054
					c-0.143,0.409-0.214,0.853-0.214,1.332c0,1.017,0.289,1.822,0.867,2.416c0.577,0.593,1.387,0.891,2.427,0.891
					c0.456,0,0.858-0.06,1.207-0.179c0.352-0.119,0.641-0.269,0.874-0.448c0.231-0.18,0.404-0.367,0.519-0.563
					c0.115-0.196,0.172-0.367,0.172-0.514c0-0.166-0.052-0.294-0.155-0.386c-0.103-0.091-0.237-0.137-0.403-0.137
					c-0.154,0-0.273,0.035-0.356,0.107c-0.202,0.19-0.366,0.34-0.492,0.452c-0.126,0.11-0.265,0.215-0.415,0.311
					c-0.15,0.098-0.305,0.167-0.466,0.214c-0.16,0.045-0.337,0.067-0.531,0.067c-0.289,0-0.553-0.07-0.792-0.213
					c-0.239-0.143-0.432-0.353-0.576-0.636c-0.144-0.281-0.219-0.604-0.222-0.973h3.168
					C187.89,484.745,188.219,484.685,188.452,484.565z M184.298,483.825c0.056-0.546,0.212-0.959,0.472-1.238
					c0.259-0.279,0.59-0.418,0.994-0.418c0.423,0,0.764,0.138,1.024,0.412c0.259,0.275,0.409,0.689,0.448,1.244H184.298z"/>
				<path id="XMLID_503_" style="fill:#2D2D38;" d="M193.879,484.127c-0.319-0.169-0.729-0.315-1.231-0.439
					c-0.424-0.103-0.756-0.19-0.997-0.261c-0.242-0.07-0.434-0.16-0.576-0.27c-0.143-0.108-0.213-0.248-0.213-0.419
					c0-0.186,0.097-0.341,0.291-0.465c0.194-0.126,0.437-0.188,0.73-0.188c0.286,0,0.511,0.047,0.677,0.143
					c0.166,0.095,0.31,0.222,0.433,0.38c0.151,0.189,0.284,0.332,0.401,0.427c0.116,0.095,0.258,0.144,0.424,0.144
					c0.23,0,0.408-0.06,0.532-0.179c0.124-0.119,0.187-0.272,0.187-0.457c0-0.171-0.058-0.345-0.175-0.523
					c-0.116-0.178-0.286-0.34-0.51-0.486c-0.223-0.146-0.502-0.264-0.837-0.35c-0.333-0.088-0.71-0.132-1.13-0.132
					c-0.535,0-0.99,0.086-1.367,0.259c-0.378,0.173-0.665,0.403-0.858,0.691c-0.194,0.289-0.291,0.596-0.291,0.92
					c0,0.363,0.105,0.671,0.315,0.92c0.21,0.249,0.489,0.45,0.84,0.602c0.35,0.153,0.804,0.299,1.362,0.437
					c0.494,0.119,0.849,0.244,1.066,0.374c0.216,0.132,0.323,0.338,0.323,0.623c0,0.186-0.104,0.351-0.311,0.496
					c-0.208,0.145-0.474,0.216-0.798,0.216c-0.4,0-0.715-0.07-0.947-0.213c-0.232-0.143-0.431-0.357-0.597-0.647
					c-0.082-0.149-0.169-0.267-0.261-0.35c-0.091-0.083-0.221-0.125-0.39-0.125c-0.194,0-0.355,0.064-0.481,0.19
					c-0.128,0.127-0.19,0.278-0.19,0.457c0,0.27,0.099,0.537,0.296,0.805c0.198,0.266,0.505,0.489,0.92,0.667
					c0.415,0.178,0.914,0.268,1.495,0.268c0.609,0,1.127-0.082,1.552-0.246c0.425-0.164,0.747-0.406,0.964-0.725
					c0.218-0.318,0.327-0.702,0.327-1.149c0-0.296-0.082-0.56-0.246-0.791C194.438,484.498,194.197,484.297,193.879,484.127z"/>
				<path id="XMLID_502_" style="fill:#2D2D38;" d="M196.487,481.053c-0.238,0-0.431,0.081-0.579,0.244
					c-0.149,0.162-0.222,0.403-0.222,0.724v4.635c0,0.317,0.073,0.56,0.222,0.73c0.148,0.171,0.341,0.256,0.579,0.256
					c0.238,0,0.433-0.083,0.588-0.249c0.154-0.166,0.232-0.412,0.232-0.737v-4.682c0-0.289-0.078-0.515-0.232-0.677
					C196.92,481.134,196.724,481.053,196.487,481.053z"/>
				<path id="XMLID_501_" style="fill:#2D2D38;" d="M196.505,478.715c-0.217,0-0.409,0.073-0.573,0.223
					c-0.165,0.148-0.246,0.337-0.246,0.566c0,0.254,0.08,0.45,0.24,0.588c0.16,0.139,0.353,0.208,0.579,0.208
					c0.217,0,0.405-0.07,0.563-0.211c0.158-0.141,0.238-0.335,0.238-0.585c0-0.257-0.081-0.452-0.244-0.587
					C196.9,478.781,196.715,478.715,196.505,478.715z"/>
				<path id="XMLID_498_" style="fill:#2D2D38;" d="M203.626,481.053c-0.217,0-0.395,0.078-0.535,0.232
					c-0.139,0.155-0.208,0.372-0.208,0.653v0.22c-0.289-0.376-0.602-0.651-0.938-0.828c-0.336-0.176-0.734-0.264-1.193-0.264
					c-0.384,0-0.736,0.068-1.056,0.203c-0.321,0.138-0.604,0.341-0.849,0.609c-0.245,0.269-0.433,0.6-0.566,0.992
					c-0.133,0.391-0.199,0.83-0.199,1.317c0,0.652,0.108,1.227,0.327,1.727c0.217,0.499,0.529,0.886,0.934,1.163
					c0.406,0.277,0.88,0.416,1.422,0.416c0.45,0,0.84-0.091,1.166-0.273c0.327-0.182,0.615-0.447,0.864-0.796
					c-0.008,0.531-0.02,0.915-0.036,1.155c-0.016,0.239-0.07,0.464-0.164,0.673c-0.093,0.21-0.255,0.373-0.486,0.49
					c-0.231,0.117-0.557,0.175-0.977,0.175c-0.205,0-0.387-0.02-0.545-0.056c-0.159-0.038-0.294-0.096-0.406-0.172
					c-0.112-0.078-0.216-0.17-0.309-0.279c-0.093-0.108-0.183-0.218-0.27-0.324c-0.178-0.209-0.386-0.314-0.624-0.314
					c-0.189,0-0.352,0.063-0.486,0.188c-0.135,0.124-0.202,0.285-0.202,0.482c0,0.262,0.119,0.517,0.356,0.764
					c0.238,0.247,0.576,0.448,1.014,0.605c0.439,0.156,0.938,0.234,1.496,0.234c0.609,0,1.119-0.061,1.528-0.185
					c0.409-0.122,0.741-0.311,0.994-0.563c0.253-0.254,0.438-0.574,0.551-0.961c0.115-0.389,0.173-0.851,0.173-1.39v-4.706
					c0-0.384-0.051-0.678-0.155-0.882C204.146,481.155,203.939,481.053,203.626,481.053z M202.6,485.419
					c-0.151,0.29-0.346,0.508-0.586,0.652c-0.239,0.145-0.493,0.217-0.762,0.217c-0.455,0-0.826-0.168-1.113-0.505
					c-0.287-0.336-0.43-0.833-0.43-1.489c0-0.648,0.139-1.15,0.418-1.502c0.279-0.352,0.649-0.528,1.113-0.528
					c0.475,0,0.858,0.184,1.149,0.553c0.291,0.367,0.436,0.883,0.436,1.543C202.825,484.775,202.749,485.128,202.6,485.419z"/>
				<path id="XMLID_497_" style="fill:#2D2D38;" d="M210.978,482.121c-0.165-0.34-0.418-0.603-0.753-0.789
					c-0.337-0.186-0.718-0.279-1.146-0.279c-0.439,0-0.828,0.088-1.165,0.265c-0.339,0.176-0.651,0.452-0.935,0.828v-0.196
					c0-0.193-0.034-0.358-0.103-0.493c-0.07-0.133-0.162-0.234-0.276-0.302c-0.115-0.067-0.244-0.102-0.387-0.102
					c-0.233,0-0.417,0.076-0.552,0.229c-0.134,0.152-0.201,0.383-0.201,0.692v4.682c0,0.317,0.076,0.56,0.226,0.73
					c0.15,0.171,0.342,0.256,0.576,0.256c0.241,0,0.438-0.082,0.59-0.246c0.152-0.164,0.228-0.411,0.228-0.74v-2.029
					c0-0.661,0.04-1.111,0.119-1.353c0.11-0.301,0.284-0.537,0.522-0.71c0.237-0.173,0.5-0.258,0.788-0.258
					c0.444,0,0.74,0.142,0.888,0.424c0.148,0.283,0.223,0.692,0.223,1.226v2.7c0,0.317,0.074,0.56,0.226,0.73
					c0.15,0.171,0.346,0.256,0.587,0.256c0.238,0,0.431-0.083,0.579-0.249c0.149-0.166,0.223-0.412,0.223-0.737v-3.015
					c0-0.356-0.017-0.648-0.048-0.878C211.155,482.533,211.086,482.319,210.978,482.121z"/>
				<path id="XMLID_494_" style="fill:#2D2D38;" d="M217.822,484.565c0.233-0.122,0.35-0.385,0.35-0.793
					c0-0.439-0.113-0.871-0.338-1.294c-0.226-0.423-0.565-0.77-1.019-1.035c-0.453-0.268-0.996-0.4-1.629-0.4
					c-0.487,0-0.93,0.077-1.33,0.233c-0.399,0.157-0.736,0.381-1.009,0.674c-0.273,0.293-0.481,0.645-0.624,1.054
					c-0.142,0.409-0.213,0.853-0.213,1.332c0,1.017,0.289,1.822,0.866,2.416c0.578,0.593,1.387,0.891,2.428,0.891
					c0.455,0,0.858-0.06,1.208-0.179c0.351-0.119,0.64-0.269,0.872-0.448c0.232-0.18,0.405-0.367,0.52-0.563
					c0.115-0.196,0.172-0.367,0.172-0.514c0-0.166-0.051-0.294-0.154-0.386c-0.103-0.091-0.238-0.137-0.404-0.137
					c-0.154,0-0.273,0.035-0.356,0.107c-0.201,0.19-0.366,0.34-0.492,0.452c-0.128,0.11-0.266,0.215-0.415,0.311
					c-0.151,0.098-0.307,0.167-0.466,0.214c-0.161,0.045-0.338,0.067-0.532,0.067c-0.288,0-0.553-0.07-0.792-0.213
					c-0.239-0.143-0.431-0.353-0.576-0.636c-0.145-0.281-0.218-0.604-0.223-0.973h3.169
					C217.26,484.745,217.588,484.685,217.822,484.565z M213.667,483.825c0.056-0.546,0.212-0.959,0.471-1.238
					c0.259-0.279,0.591-0.418,0.995-0.418c0.424,0,0.765,0.138,1.024,0.412c0.259,0.275,0.409,0.689,0.448,1.244H213.667z"/>
				<path id="XMLID_491_" style="fill:#2D2D38;" d="M224.207,478.644c-0.245,0-0.434,0.085-0.567,0.255
					c-0.132,0.17-0.199,0.422-0.199,0.754v2.392c-0.304-0.331-0.617-0.578-0.938-0.739c-0.32-0.159-0.714-0.239-1.181-0.239
					c-0.808,0-1.458,0.283-1.953,0.848c-0.495,0.566-0.741,1.356-0.741,2.369c0,0.478,0.062,0.924,0.187,1.335
					c0.124,0.412,0.308,0.77,0.549,1.074c0.241,0.305,0.527,0.54,0.857,0.704c0.33,0.164,0.689,0.246,1.077,0.246
					c0.293,0,0.563-0.04,0.811-0.122c0.247-0.081,0.476-0.2,0.688-0.356c0.211-0.156,0.426-0.359,0.643-0.608v0.161
					c0,0.296,0.072,0.524,0.217,0.685c0.145,0.161,0.328,0.241,0.549,0.241c0.226,0,0.41-0.078,0.552-0.232
					c0.143-0.154,0.213-0.386,0.213-0.694v-7.147c0-0.306-0.065-0.534-0.199-0.691C224.641,478.722,224.452,478.644,224.207,478.644
					z M223.141,485.485c-0.14,0.306-0.328,0.533-0.564,0.682c-0.235,0.149-0.495,0.224-0.781,0.224c-0.281,0-0.54-0.079-0.776-0.236
					c-0.238-0.155-0.425-0.388-0.562-0.696c-0.137-0.309-0.205-0.683-0.205-1.122c0-0.415,0.064-0.78,0.193-1.095
					c0.129-0.315,0.31-0.556,0.543-0.724c0.233-0.168,0.499-0.253,0.795-0.253c0.285,0,0.547,0.082,0.787,0.246
					c0.239,0.165,0.43,0.402,0.57,0.712c0.141,0.312,0.21,0.683,0.21,1.113C223.352,484.794,223.282,485.177,223.141,485.485z"/>
				<path id="XMLID_488_" style="fill:#2D2D38;" d="M233.586,481.447c-0.406-0.255-0.877-0.382-1.415-0.382
					c-0.467,0-0.859,0.084-1.175,0.252c-0.317,0.168-0.627,0.41-0.932,0.727v-2.475c0-0.297-0.068-0.524-0.202-0.685
					c-0.135-0.16-0.326-0.24-0.576-0.24c-0.237,0-0.423,0.084-0.555,0.252c-0.133,0.168-0.198,0.417-0.198,0.745v7.075
					c0,0.304,0.068,0.535,0.205,0.691c0.136,0.156,0.319,0.234,0.549,0.234c0.226,0,0.412-0.078,0.558-0.234
					c0.146-0.156,0.22-0.388,0.22-0.691v-0.161c0.178,0.205,0.322,0.361,0.43,0.463c0.109,0.104,0.241,0.204,0.395,0.3
					c0.154,0.098,0.341,0.176,0.561,0.234c0.22,0.06,0.454,0.09,0.704,0.09c0.407,0,0.781-0.082,1.119-0.246
					c0.338-0.164,0.626-0.397,0.864-0.698c0.237-0.301,0.418-0.656,0.543-1.066c0.124-0.41,0.187-0.858,0.187-1.35
					c0-0.665-0.112-1.24-0.336-1.725C234.305,482.073,233.991,481.703,233.586,481.447z M232.797,485.859
					c-0.295,0.354-0.646,0.531-1.053,0.531c-0.479,0-0.866-0.174-1.161-0.521c-0.295-0.346-0.442-0.841-0.442-1.486
					c0-0.439,0.069-0.818,0.207-1.137c0.139-0.318,0.328-0.561,0.57-0.729c0.24-0.168,0.516-0.253,0.825-0.253
					c0.3,0,0.564,0.085,0.789,0.253c0.225,0.168,0.399,0.406,0.521,0.715c0.123,0.309,0.184,0.677,0.184,1.104
					C233.239,484.996,233.091,485.504,232.797,485.859z"/>
				<path id="XMLID_487_" style="fill:#2D2D38;" d="M240.53,481.152c-0.112-0.066-0.23-0.099-0.353-0.099
					c-0.171,0-0.302,0.03-0.395,0.09c-0.093,0.059-0.181,0.174-0.264,0.344c-0.083,0.17-0.176,0.406-0.279,0.706l-1.3,3.71
					l-1.372-3.989c-0.091-0.276-0.195-0.489-0.314-0.638c-0.119-0.147-0.295-0.223-0.528-0.223c-0.135,0-0.265,0.036-0.389,0.107
					c-0.124,0.071-0.222,0.166-0.294,0.285c-0.071,0.118-0.107,0.246-0.107,0.385c0,0.131,0.062,0.342,0.185,0.629l1.994,5.022
					l-0.148,0.362c-0.111,0.266-0.208,0.466-0.294,0.602c-0.085,0.138-0.181,0.233-0.288,0.288c-0.106,0.057-0.254,0.084-0.44,0.084
					c-0.074,0-0.163-0.012-0.266-0.035c-0.083-0.024-0.168-0.037-0.256-0.037c-0.221,0-0.388,0.052-0.5,0.152
					c-0.113,0.101-0.169,0.245-0.169,0.43c0,0.273,0.119,0.461,0.356,0.565c0.237,0.102,0.593,0.153,1.068,0.153
					c0.487,0,0.873-0.074,1.161-0.223c0.287-0.148,0.517-0.361,0.691-0.639c0.174-0.277,0.353-0.658,0.535-1.145l2.113-5.532
					c0.051-0.142,0.095-0.283,0.13-0.421c0.037-0.139,0.061-0.246,0.078-0.32c0-0.123-0.032-0.239-0.093-0.351
					C240.73,481.305,240.642,481.217,240.53,481.152z"/>
			</g>
			<g id="XMLID_450_">
				<g id="XMLID_465_">
					<path id="XMLID_485_" style="fill:#2D2D38;" d="M262.93,478.639c-0.533,0-0.954,0.069-1.26,0.205
						c-0.308,0.137-0.527,0.354-0.654,0.652c-0.13,0.301-0.191,0.702-0.191,1.21v0.487h-0.387c-0.543,0-0.814,0.192-0.814,0.582
						c0,0.174,0.065,0.316,0.196,0.424c0.132,0.111,0.315,0.163,0.559,0.163h0.446v4.294c0,0.319,0.074,0.563,0.228,0.729
						c0.154,0.171,0.344,0.254,0.573,0.254c0.243,0,0.439-0.083,0.589-0.254c0.155-0.167,0.23-0.41,0.23-0.729v-4.294h0.396
						c0.291,0,0.517-0.035,0.681-0.107c0.166-0.07,0.245-0.24,0.245-0.502c0-0.374-0.307-0.56-0.926-0.56h-0.396v-0.386
						c0-0.322,0.043-0.568,0.122-0.74c0.087-0.171,0.273-0.259,0.565-0.259c0.108,0,0.241,0.014,0.39,0.033
						c0.155,0.026,0.268,0.038,0.33,0.038c0.134,0,0.252-0.054,0.348-0.159c0.101-0.107,0.15-0.236,0.15-0.385
						C264.35,478.869,263.879,478.639,262.93,478.639z"/>
					<path id="XMLID_484_" style="fill:#2D2D38;" d="M268.089,481.305c-0.32-0.171-0.647-0.255-0.99-0.255
						c-0.342,0-0.61,0.084-0.818,0.255c-0.202,0.171-0.4,0.422-0.593,0.755c-0.014-0.333-0.08-0.584-0.198-0.755
						c-0.119-0.171-0.313-0.255-0.583-0.255c-0.525,0-0.788,0.364-0.788,1.093v4.514c0,0.323,0.078,0.568,0.226,0.733
						c0.149,0.169,0.34,0.25,0.579,0.25c0.236,0,0.432-0.08,0.586-0.246c0.15-0.163,0.233-0.41,0.233-0.737v-1.354
						c0-0.486,0.014-0.899,0.045-1.239c0.033-0.336,0.089-0.63,0.17-0.877c0.084-0.243,0.201-0.426,0.353-0.554
						c0.149-0.122,0.345-0.186,0.582-0.186c0.172,0,0.374,0.037,0.602,0.108c0.227,0.073,0.371,0.112,0.433,0.112
						c0.158,0,0.305-0.064,0.441-0.195c0.135-0.125,0.204-0.291,0.204-0.487C268.572,481.703,268.411,481.476,268.089,481.305z"/>
					<path id="XMLID_481_" style="fill:#2D2D38;" d="M274.176,484.563c0.232-0.122,0.351-0.386,0.351-0.791
						c0-0.441-0.112-0.871-0.339-1.296c-0.222-0.424-0.565-0.77-1.018-1.034c-0.453-0.27-0.997-0.403-1.629-0.403
						c-0.488,0-0.931,0.078-1.329,0.233c-0.401,0.156-0.735,0.38-1.008,0.674c-0.276,0.295-0.484,0.644-0.624,1.055
						c-0.145,0.41-0.218,0.855-0.218,1.334c0,1.017,0.292,1.822,0.87,2.417c0.576,0.594,1.385,0.889,2.429,0.889
						c0.453,0,0.858-0.06,1.207-0.179c0.349-0.116,0.64-0.267,0.874-0.446c0.232-0.182,0.404-0.367,0.521-0.566
						c0.111-0.194,0.167-0.364,0.167-0.512c0-0.166-0.048-0.293-0.152-0.386c-0.105-0.092-0.237-0.139-0.405-0.139
						c-0.152,0-0.271,0.038-0.355,0.109c-0.202,0.189-0.367,0.34-0.493,0.449c-0.128,0.113-0.264,0.217-0.415,0.311
						c-0.15,0.098-0.308,0.17-0.466,0.214c-0.16,0.048-0.336,0.068-0.531,0.068c-0.29,0-0.552-0.069-0.792-0.212
						c-0.241-0.145-0.432-0.355-0.578-0.635c-0.145-0.281-0.216-0.606-0.222-0.974h3.171
						C273.615,484.744,273.943,484.684,274.176,484.563z M270.021,483.822c0.055-0.546,0.213-0.957,0.472-1.236
						c0.26-0.28,0.592-0.417,0.995-0.417c0.426,0,0.764,0.136,1.024,0.412c0.261,0.272,0.407,0.689,0.446,1.241H270.021z"/>
					<path id="XMLID_478_" style="fill:#2D2D38;" d="M280.916,484.563c0.231-0.122,0.352-0.386,0.352-0.791
						c0-0.441-0.116-0.871-0.341-1.296c-0.223-0.424-0.564-0.77-1.013-1.034c-0.46-0.27-1.003-0.403-1.634-0.403
						c-0.486,0-0.932,0.078-1.33,0.233c-0.4,0.156-0.736,0.38-1.009,0.674c-0.273,0.295-0.48,0.644-0.622,1.055
						c-0.145,0.41-0.217,0.855-0.217,1.334c0,1.017,0.29,1.822,0.867,2.417c0.58,0.594,1.387,0.889,2.43,0.889
						c0.453,0,0.859-0.06,1.208-0.179c0.347-0.116,0.641-0.267,0.872-0.446c0.234-0.182,0.408-0.367,0.519-0.566
						c0.116-0.194,0.171-0.364,0.171-0.512c0-0.166-0.047-0.293-0.15-0.386c-0.105-0.092-0.238-0.139-0.406-0.139
						c-0.151,0-0.271,0.038-0.355,0.109c-0.202,0.189-0.367,0.34-0.492,0.449c-0.128,0.113-0.264,0.217-0.415,0.311
						c-0.152,0.098-0.307,0.17-0.469,0.214c-0.157,0.048-0.335,0.068-0.527,0.068c-0.291,0-0.556-0.069-0.795-0.212
						c-0.238-0.145-0.431-0.355-0.575-0.635c-0.144-0.281-0.218-0.606-0.222-0.974h3.17
						C280.355,484.744,280.682,484.684,280.916,484.563z M276.762,483.822c0.053-0.546,0.211-0.957,0.47-1.236
						c0.26-0.28,0.592-0.417,0.995-0.417c0.425,0,0.764,0.136,1.026,0.412c0.257,0.272,0.407,0.689,0.446,1.241H276.762z"/>
					<path id="XMLID_475_" style="fill:#2D2D38;" d="M286.927,481.447c-0.42-0.257-0.883-0.386-1.38-0.386
						c-0.414,0-0.789,0.089-1.113,0.267c-0.331,0.177-0.648,0.452-0.952,0.827v-0.194c0-0.296-0.071-0.518-0.218-0.678
						c-0.144-0.155-0.329-0.233-0.561-0.233c-0.232,0-0.418,0.078-0.553,0.228c-0.133,0.155-0.2,0.382-0.2,0.692v6.994
						c0,0.354,0.052,0.62,0.147,0.807c0.102,0.184,0.301,0.274,0.606,0.274c0.518,0,0.778-0.358,0.778-1.068v-2.433
						c0.286,0.358,0.586,0.634,0.9,0.816c0.314,0.187,0.704,0.279,1.165,0.279c0.386,0,0.742-0.076,1.08-0.227
						c0.334-0.152,0.622-0.372,0.868-0.653c0.245-0.283,0.44-0.633,0.58-1.05c0.14-0.419,0.21-0.878,0.21-1.376
						c0-0.677-0.122-1.261-0.366-1.758C287.675,482.082,287.346,481.706,286.927,481.447z M286.45,485.45
						c-0.137,0.313-0.32,0.547-0.552,0.704c-0.229,0.154-0.48,0.232-0.748,0.232c-0.454,0-0.828-0.179-1.133-0.536
						c-0.307-0.358-0.459-0.862-0.459-1.504c0-0.686,0.154-1.204,0.461-1.558c0.307-0.35,0.685-0.527,1.131-0.527
						c0.281,0,0.54,0.084,0.77,0.248c0.23,0.163,0.411,0.397,0.542,0.705c0.13,0.306,0.196,0.673,0.196,1.101
						C286.658,484.759,286.588,485.137,286.45,485.45z"/>
					<path id="XMLID_474_" style="fill:#2D2D38;" d="M289.901,481.05c-0.238,0-0.428,0.079-0.58,0.245
						c-0.146,0.162-0.222,0.402-0.222,0.721v4.642c0,0.314,0.076,0.556,0.222,0.728c0.152,0.171,0.342,0.254,0.58,0.254
						c0.237,0,0.432-0.081,0.588-0.25c0.154-0.165,0.231-0.41,0.231-0.732v-4.688c0-0.287-0.077-0.513-0.231-0.675
						C290.332,481.129,290.138,481.05,289.901,481.05z"/>
					<path id="XMLID_473_" style="fill:#2D2D38;" d="M289.917,478.71c-0.217,0-0.407,0.076-0.571,0.223
						c-0.166,0.149-0.247,0.339-0.247,0.567c0,0.254,0.08,0.447,0.242,0.586c0.158,0.139,0.35,0.209,0.576,0.209
						c0.22,0,0.408-0.07,0.566-0.209c0.157-0.141,0.236-0.335,0.236-0.586c0-0.256-0.082-0.453-0.244-0.59
						C290.315,478.777,290.13,478.71,289.917,478.71z"/>
					<path id="XMLID_472_" style="fill:#2D2D38;" d="M297.258,486.079l-1.662-2.613l0.86-0.789c0.438-0.396,0.659-0.714,0.659-0.95
						c0-0.192-0.068-0.354-0.2-0.483c-0.138-0.129-0.306-0.193-0.509-0.193c-0.169,0-0.313,0.044-0.432,0.13
						c-0.121,0.086-0.29,0.252-0.517,0.486l-1.822,1.914v-3.933c0-0.33-0.074-0.582-0.221-0.751
						c-0.147-0.172-0.344-0.258-0.593-0.258c-0.256,0-0.457,0.093-0.596,0.283c-0.136,0.189-0.207,0.463-0.207,0.821v6.913
						c0,0.323,0.073,0.568,0.215,0.733c0.141,0.169,0.339,0.25,0.588,0.25c0.213,0,0.405-0.083,0.566-0.254
						c0.164-0.167,0.247-0.406,0.247-0.718v-1.291l0.88-0.83l1.428,2.354c0.182,0.277,0.329,0.471,0.436,0.58
						c0.107,0.108,0.261,0.159,0.458,0.159c0.227,0,0.413-0.073,0.554-0.221c0.142-0.151,0.214-0.352,0.214-0.609
						c0-0.089-0.029-0.191-0.082-0.289C297.47,486.419,297.379,486.276,297.258,486.079z"/>
					<path id="XMLID_471_" style="fill:#2D2D38;" d="M299.449,485.854c-0.25,0-0.458,0.086-0.629,0.261
						c-0.171,0.173-0.257,0.382-0.257,0.622c0,0.287,0.091,0.51,0.268,0.666c0.18,0.159,0.39,0.237,0.634,0.237
						c0.237,0,0.444-0.078,0.624-0.241c0.174-0.157,0.264-0.379,0.264-0.662c0-0.243-0.09-0.454-0.264-0.626
						C299.909,485.94,299.698,485.854,299.449,485.854z"/>
					<path id="XMLID_470_" style="fill:#2D2D38;" d="M306.835,484.927c-0.166,0-0.308,0.054-0.422,0.155
						c-0.113,0.104-0.219,0.246-0.318,0.428c-0.177,0.309-0.381,0.538-0.616,0.688c-0.23,0.15-0.509,0.226-0.834,0.226
						c-0.24,0-0.463-0.045-0.666-0.142c-0.201-0.093-0.372-0.229-0.516-0.408c-0.144-0.18-0.252-0.398-0.325-0.652
						c-0.075-0.256-0.114-0.537-0.114-0.843c0-0.645,0.146-1.161,0.439-1.533c0.293-0.375,0.682-0.562,1.158-0.562
						c0.333,0,0.606,0.075,0.82,0.228c0.219,0.147,0.424,0.375,0.623,0.674c0.108,0.157,0.209,0.269,0.299,0.339
						c0.09,0.068,0.201,0.104,0.338,0.104c0.202,0,0.377-0.068,0.524-0.202c0.143-0.135,0.214-0.301,0.214-0.492
						s-0.063-0.397-0.192-0.617c-0.127-0.218-0.314-0.423-0.556-0.619c-0.245-0.192-0.54-0.353-0.891-0.475
						c-0.353-0.123-0.736-0.185-1.156-0.185c-0.674,0-1.26,0.139-1.747,0.419c-0.485,0.279-0.858,0.674-1.113,1.184
						c-0.259,0.511-0.387,1.098-0.387,1.765c0,0.981,0.281,1.764,0.841,2.349c0.563,0.583,1.345,0.876,2.349,0.876
						c0.469,0,0.894-0.065,1.269-0.191c0.377-0.126,0.688-0.295,0.935-0.502c0.248-0.208,0.434-0.425,0.553-0.656
						c0.122-0.229,0.183-0.446,0.183-0.646c0-0.169-0.067-0.33-0.199-0.48C307.198,485.004,307.033,484.927,306.835,484.927z"/>
					<path id="XMLID_467_" style="fill:#2D2D38;" d="M313.647,481.963c-0.288-0.29-0.628-0.518-1.026-0.674
						c-0.4-0.161-0.847-0.239-1.336-0.239c-0.482,0-0.924,0.078-1.326,0.233c-0.398,0.158-0.737,0.381-1.02,0.669
						c-0.281,0.288-0.498,0.637-0.649,1.045c-0.145,0.408-0.224,0.858-0.224,1.35c0,0.485,0.076,0.929,0.22,1.331
						c0.151,0.401,0.368,0.75,0.656,1.048c0.285,0.292,0.627,0.521,1.017,0.677c0.393,0.159,0.835,0.239,1.326,0.239
						c0.492,0,0.936-0.08,1.336-0.234c0.394-0.158,0.735-0.383,1.02-0.676c0.286-0.291,0.501-0.641,0.656-1.049
						c0.146-0.408,0.222-0.855,0.222-1.336c0-0.489-0.075-0.932-0.221-1.339C314.149,482.607,313.934,482.26,313.647,481.963z
						 M312.455,485.879c-0.29,0.372-0.682,0.557-1.171,0.557c-0.324,0-0.604-0.086-0.846-0.252c-0.24-0.168-0.424-0.41-0.554-0.729
						c-0.13-0.317-0.193-0.685-0.193-1.108c0-0.429,0.066-0.804,0.197-1.125c0.131-0.321,0.314-0.563,0.556-0.727
						c0.242-0.164,0.521-0.246,0.84-0.246c0.489,0,0.881,0.183,1.171,0.555c0.289,0.367,0.435,0.881,0.435,1.543
						C312.891,484.997,312.744,485.51,312.455,485.879z"/>
					<path id="XMLID_466_" style="fill:#2D2D38;" d="M323.57,481.323c-0.32-0.173-0.705-0.262-1.146-0.262
						c-0.381,0-0.726,0.081-1.038,0.241c-0.314,0.161-0.607,0.407-0.882,0.737c-0.191-0.325-0.431-0.572-0.725-0.735
						c-0.292-0.161-0.642-0.243-1.048-0.243c-0.395,0-0.748,0.079-1.07,0.241c-0.319,0.155-0.62,0.403-0.903,0.737v-0.153
						c0-0.261-0.073-0.466-0.222-0.615c-0.15-0.145-0.334-0.222-0.557-0.222c-0.227,0-0.412,0.078-0.556,0.239
						c-0.14,0.156-0.21,0.389-0.21,0.694v4.636c0,0.336,0.078,0.591,0.235,0.765c0.156,0.171,0.357,0.258,0.604,0.258
						c0.248,0,0.447-0.087,0.603-0.258c0.149-0.174,0.227-0.429,0.227-0.765v-2.188c0-0.684,0.086-1.206,0.253-1.566
						c0.169-0.369,0.517-0.551,1.048-0.551c0.264,0,0.459,0.072,0.582,0.22c0.121,0.142,0.197,0.331,0.226,0.552
						c0.027,0.227,0.04,0.544,0.04,0.953v2.581c0,0.341,0.078,0.594,0.232,0.767c0.148,0.171,0.35,0.256,0.595,0.256
						c0.254,0,0.454-0.085,0.61-0.256c0.156-0.173,0.23-0.426,0.23-0.767v-2.153c0-0.694,0.063-1.178,0.178-1.453
						c0.109-0.209,0.259-0.383,0.45-0.508c0.192-0.125,0.396-0.191,0.609-0.191c0.264,0,0.463,0.072,0.596,0.215
						c0.128,0.142,0.209,0.318,0.238,0.529c0.029,0.209,0.044,0.486,0.044,0.836v2.726c0,0.336,0.078,0.591,0.234,0.765
						c0.157,0.171,0.356,0.258,0.603,0.258c0.252,0,0.458-0.085,0.611-0.256c0.154-0.173,0.23-0.426,0.23-0.767v-3.164
						c0-0.629-0.068-1.09-0.206-1.385C324.128,481.747,323.889,481.497,323.57,481.323z"/>
				</g>
				<g id="XMLID_451_">
					<path id="XMLID_464_" style="fill:#2D2D38;" d="M245.274,483.954c-0.001-0.004-0.001-0.006-0.001-0.011
						C245.272,483.948,245.272,483.95,245.274,483.954z"/>
					<path id="XMLID_463_" style="fill:#2D2D38;" d="M245.355,484.472c0.001,0,0.001,0,0.001,0c-0.03-0.147-0.055-0.294-0.073-0.438
						C245.302,484.18,245.326,484.326,245.355,484.472z"/>
					<path id="XMLID_462_" style="fill:#2D2D38;" d="M245.892,485.976c-0.004-0.006-0.007-0.013-0.011-0.021
						C245.885,485.963,245.888,485.97,245.892,485.976z"/>
					<path id="XMLID_461_" style="fill:#2D2D38;" d="M245.84,485.876c-0.014-0.027-0.027-0.057-0.041-0.084
						C245.813,485.821,245.826,485.849,245.84,485.876z"/>
					<path id="XMLID_460_" style="fill:#2D2D38;" d="M245.506,485.052c0.079,0.25,0.175,0.492,0.285,0.724
						c-0.113-0.236-0.206-0.479-0.284-0.724H245.506z"/>
					<path id="XMLID_459_" style="fill:#2D2D38;" d="M250.736,477.192l-0.076-0.26c0.299-0.063,0.523-0.328,0.523-0.645
						c0-0.364-0.296-0.659-0.66-0.659c-0.365,0-0.66,0.295-0.66,0.659c0,0.317,0.225,0.583,0.522,0.645l0.084,0.29
						c-1.021,0.14-1.834,0.538-1.834,0.538l0.144,0.441c0.617-0.206,1.153-0.331,1.639-0.384c0.476-0.051,0.834-0.072,1.126-0.072
						c0.313,0,0.545,0.024,0.81,0.068l0.075-0.476C252.43,477.338,251.698,477.113,250.736,477.192z"/>
					<path id="XMLID_458_" style="fill:#2D2D38;" d="M245.453,479.698c-0.017,0.023-0.497,0.465-0.876,1.279
						c-0.016-0.025-0.035-0.05-0.056-0.074c-0.114-0.124-0.272-0.188-0.474-0.184c-0.003,0-0.006,0-0.01,0
						c-0.124,0-0.21-0.041-0.266-0.092c0.056-0.071,0.089-0.161,0.089-0.259c0-0.23-0.188-0.418-0.419-0.418
						c-0.23,0-0.418,0.188-0.418,0.418c0,0.232,0.188,0.418,0.418,0.418c0.037,0,0.071-0.006,0.105-0.013
						c0.102,0.114,0.266,0.214,0.504,0.209c0.124-0.001,0.214,0.03,0.273,0.097c0.07,0.076,0.093,0.186,0.1,0.267
						c-0.001,0.002-0.001,0.004-0.002,0.004c-0.272,0.743-0.194,1.669-0.194,1.669l0.661,0.025c0.014-0.336,0.062-0.926,0.232-1.393
						c0.329-0.906,0.741-1.472,0.758-1.495l0.003-0.005c0.024-0.031,0.047-0.061,0.071-0.089l-0.196-0.143L245.453,479.698z"/>
					<path id="XMLID_457_" style="fill:#2D2D38;" d="M257.294,478.297c-0.23,0-0.419,0.188-0.419,0.418
						c0,0.036,0.006,0.07,0.015,0.104c-0.114,0.103-0.214,0.267-0.21,0.507c0.002,0.123-0.03,0.212-0.097,0.272
						c-0.053,0.047-0.119,0.072-0.185,0.088c-0.492-0.689-1.098-1.109-1.098-1.109l-0.474,0.508c0.358,0.326,0.725,0.734,1.08,1.244
						c0.246,0.352,0.499,0.806,0.71,1.259l0.64-0.304c0,0-0.292-0.722-0.703-1.369c0.071-0.025,0.143-0.065,0.206-0.12
						c0.125-0.113,0.188-0.273,0.184-0.474c-0.001-0.13,0.041-0.218,0.093-0.276c0.071,0.055,0.16,0.089,0.258,0.089
						c0.231,0,0.418-0.188,0.418-0.418C257.712,478.485,257.526,478.297,257.294,478.297z"/>
					<path id="XMLID_456_" style="fill:#2D2D38;" d="M255.633,484.048c-0.88,0.429-2.33,0.995-4.236,1.262
						c-0.749,0.103-1.475,0.142-2.143,0.142c-0.869,0-1.637-0.065-2.227-0.139c-0.672-0.085-1.198-0.189-1.52-0.261
						c0.078,0.244,0.171,0.487,0.284,0.724c0.002,0.006,0.005,0.013,0.008,0.017c0.013,0.027,0.027,0.057,0.041,0.084
						c0.014,0.027,0.027,0.054,0.041,0.079c0.004,0.008,0.007,0.015,0.011,0.021c0.189,0.356,0.417,0.685,0.675,0.968
						c0.899,0.984,1.816,1.14,1.825,1.142l0.015,0.002l0.013,0.005c0.009,0.003,0.821,0.265,2.057,0.265
						c1.215,0,2.409-0.245,3.545-0.728c0.842-0.431,1.639-1.085,2.033-1.669c0.305-0.451,0.526-0.934,0.656-1.434
						c0.069-0.266,0.124-0.692,0.092-1.14C256.555,483.552,256.163,483.789,255.633,484.048z"/>
					<path id="XMLID_452_" style="fill:#2D2D38;" d="M252.323,478.165c-0.265-0.043-0.477-0.068-0.777-0.068
						c-0.279,0-0.626,0.022-1.088,0.071c-0.465,0.049-0.982,0.171-1.583,0.373c-0.842,0.281-1.603,0.724-2.204,1.279l-0.02,0.019
						c-0.089,0.081-0.274,0.254-0.488,0.525c-0.025,0.038-0.408,0.578-0.709,1.408c-0.226,0.622-0.216,1.526-0.216,1.537v0.002
						c0,0.212,0.013,0.423,0.036,0.632c0,0.005,0,0.007,0.001,0.011c0.002,0.026,0.007,0.053,0.01,0.079
						c0.018,0.144,0.042,0.291,0.074,0.438c0.438,0.111,3.048,0.721,5.966,0.314c1.828-0.255,3.218-0.796,4.061-1.204
						c0.701-0.34,1.151-0.647,1.325-0.774c-0.174-0.643-0.651-1.649-1.089-2.278C254.367,478.739,253.016,478.279,252.323,478.165z
						 M248.679,483.424c-0.971,0-1.759-0.787-1.759-1.759c0-0.972,0.788-1.761,1.759-1.761c0.973,0,1.761,0.789,1.761,1.761
						C250.44,482.637,249.652,483.424,248.679,483.424z M253.828,482.127c-0.601,0-1.088-0.488-1.088-1.09
						c0-0.602,0.487-1.089,1.088-1.089s1.09,0.487,1.09,1.089C254.918,481.639,254.429,482.127,253.828,482.127z"/>
				</g>
			</g>
		</g>
	</g>
</g>
</svg>
