<svg xmlns="http://www.w3.org/2000/svg"  viewBox="0 0 40 40" width="100px" height="100px"><path fill="#dbf2ff" d="M20,2.5C10.335,2.5,2.5,10.335,2.5,20S10.335,37.5,20,37.5S37.5,29.665,37.5,20S29.665,2.5,20,2.5z M20,33.5c-7.456,0-13.5-6.044-13.5-13.5c0-7.456,6.044-13.5,13.5-13.5S33.5,12.544,33.5,20C33.5,27.456,27.456,33.5,20,33.5z"/><path fill="#b5ddf5" d="M20,35c-8.284,0-15-6.716-15-15H2.5c0,9.665,7.835,17.5,17.5,17.5S37.5,29.665,37.5,20H35	C35,28.284,28.284,35,20,35z"/><path fill="#b5ddf5" d="M20,7c7.18,0,13,5.82,13,13h2c0-8.284-6.716-15-15-15S5,11.716,5,20h2C7,12.82,12.82,7,20,7z"/><path fill="#7496c4" d="M20,38c-9.925,0-18-8.075-18-18S10.075,2,20,2s18,8.075,18,18S29.925,38,20,38z M20,3	C10.626,3,3,10.626,3,20s7.626,17,17,17s17-7.626,17-17S29.374,3,20,3z M20,34c-7.72,0-14-6.28-14-14S12.28,6,20,6s14,6.28,14,14	S27.72,34,20,34z M20,7C12.832,7,7,12.832,7,20s5.832,13,13,13s13-5.832,13-13S27.168,7,20,7z"/><path fill="#dbf2ff" d="M0.513,16.219v0.535v7.492v0.535c12.964,2.235,25.956,2.225,38.974,0v-0.535v-7.492v-0.535	C26.523,13.984,13.531,13.993,0.513,16.219z"/><path fill="#b5ddf5" d="M35.897,20.085H4.103c-1.459,0-2.744-0.745-3.59-1.887v5.347v0.626	c12.964,2.613,25.956,2.602,38.974,0v-0.626v-5.347C38.641,19.339,37.356,20.085,35.897,20.085z"/><path fill="#7496c4" d="M19.959,27c-6.538,0-13.062-0.557-19.527-1.671L0,25.254v-9.508l0.433-0.075	c13.039-2.228,26.207-2.228,39.136,0L40,15.746v9.508l-0.433,0.075C33.049,26.443,26.495,27,19.959,27z M1.026,24.308	c12.541,2.114,25.303,2.114,37.949,0v-7.615c-12.539-2.114-25.301-2.113-37.949,0V24.308z"/><path fill="#66798f" d="M9,21.528l-2.606-3.336C6.299,18.071,6.154,18,6,18H5.5C5.224,18,5,18.224,5,18.5V23h1v-3.688 l2.731,3.495C8.826,22.929,8.971,23,9.125,23H9.5c0.276,0,0.5-0.224,0.5-0.5V18H9V21.528z"/><path fill="#66798f" d="M35,18v3.528l-2.606-3.336C32.299,18.071,32.154,18,32,18h-0.5c-0.276,0-0.5,0.224-0.5,0.5V23h1 v-3.688l2.731,3.495C34.826,22.929,34.971,23,35.125,23H35.5c0.276,0,0.5-0.224,0.5-0.5V18H35z"/><rect width="1" height="5" x="11" y="18" fill="#66798f"/><path fill="#66798f" d="M13,18.5v1.576c0,0.247,0.181,0.457,0.425,0.494L17,21.111V22h-4v1h4.5c0.276,0,0.5-0.224,0.5-0.5 v-1.818c0-0.247-0.181-0.457-0.425-0.494L14,19.646V19h4v-1h-4.5C13.224,18,13,18.224,13,18.5z"/><path fill="#66798f" d="M19,18.5v1.576c0,0.247,0.181,0.457,0.425,0.494L23,21.111V22h-4v1h4.5c0.276,0,0.5-0.224,0.5-0.5 v-1.818c0-0.247-0.181-0.457-0.425-0.494L20,19.646V19h4v-1h-4.5C19.224,18,19,18.224,19,18.5z"/><path fill="#66798f" d="M28,18h-1.25c-0.213,0-0.402,0.135-0.473,0.336L24.655,23h1.059l0.261-0.75h2.878L29.13,23h1.065 l-1.727-4.673C28.396,18.13,28.209,18,28,18z M26.323,21.25L27.105,19h0.546l0.832,2.25H26.323z"/></svg>